<svg xmlns="http://www.w3.org/2000/svg" xmlns:xlink="http://www.w3.org/1999/xlink" width="575" zoomAndPan="magnify" viewBox="0 0 431.25 293.999989" height="392" preserveAspectRatio="xMidYMid meet" version="1.0"><defs><clipPath id="19cb7c1a4a"><path d="M 0 0.253906 L 430.5 0.253906 L 430.5 293.742188 L 0 293.742188 Z M 0 0.253906 " clip-rule="nonzero"/></clipPath><clipPath id="e996010564"><path d="M 21.46875 107.71875 L 82.929688 107.71875 L 82.929688 201.71875 L 21.46875 201.71875 Z M 21.46875 107.71875 " clip-rule="nonzero"/></clipPath><clipPath id="b2992c2422"><path d="M 61.09375 154.8125 C 63.855469 150.035156 66.457031 145.636719 68.921875 141.160156 C 69.21875 140.617188 69.019531 139.546875 68.675781 138.933594 C 65.078125 132.582031 61.4375 126.246094 57.695312 119.980469 C 57.265625 119.269531 56.121094 118.613281 55.285156 118.582031 C 50.992188 118.441406 46.699219 118.511719 42.398438 118.535156 C 41.789062 118.535156 41.167969 118.648438 40.234375 118.742188 C 47.242188 130.863281 54.046875 142.636719 61.085938 154.8125 M 82.488281 191.859375 C 80.496094 194.570312 77.507812 198.21875 75.65625 201.433594 C 57.65625 170.269531 39.785156 139.324219 21.679688 107.992188 C 23.277344 107.992188 24.378906 107.992188 25.488281 107.992188 C 37.394531 107.984375 49.300781 108 61.199219 107.945312 C 62.5625 107.9375 63.367188 108.265625 64.070312 109.515625 C 69.664062 119.316406 75.355469 129.0625 80.925781 138.878906 C 81.332031 139.601562 81.371094 140.929688 80.972656 141.636719 C 76.742188 149.1875 72.363281 156.65625 68.085938 164.183594 C 67.742188 164.789062 67.496094 165.84375 67.796875 166.367188 C 71.40625 172.777344 75.117188 179.136719 78.953125 185.738281 Z M 82.488281 191.859375 " clip-rule="nonzero"/></clipPath><clipPath id="772c298015"><path d="M 0.5625 0.828125 L 61.65625 0.828125 L 61.65625 94.503906 L 0.5625 94.503906 Z M 0.5625 0.828125 " clip-rule="nonzero"/></clipPath><clipPath id="8ebfc05762"><path d="M 40.09375 47.8125 C 42.855469 43.035156 45.457031 38.636719 47.921875 34.160156 C 48.21875 33.617188 48.019531 32.546875 47.675781 31.933594 C 44.078125 25.582031 40.4375 19.246094 36.695312 12.980469 C 36.265625 12.269531 35.121094 11.613281 34.285156 11.582031 C 29.992188 11.441406 25.699219 11.511719 21.398438 11.535156 C 20.789062 11.535156 20.167969 11.648438 19.234375 11.742188 C 26.242188 23.863281 33.046875 35.636719 40.085938 47.8125 M 61.488281 84.859375 C 59.496094 87.570312 56.507812 91.21875 54.65625 94.433594 C 36.65625 63.269531 18.785156 32.324219 0.679688 0.992188 C 2.277344 0.992188 3.378906 0.992188 4.488281 0.992188 C 16.394531 0.984375 28.300781 1 40.199219 0.945312 C 41.5625 0.9375 42.367188 1.265625 43.070312 2.515625 C 48.664062 12.316406 54.355469 22.0625 59.925781 31.878906 C 60.332031 32.601562 60.371094 33.929688 59.972656 34.636719 C 55.742188 42.1875 51.363281 49.65625 47.085938 57.183594 C 46.742188 57.789062 46.496094 58.84375 46.796875 59.367188 C 50.40625 65.777344 54.117188 72.136719 57.953125 78.738281 Z M 61.488281 84.859375 " clip-rule="nonzero"/></clipPath><clipPath id="3a2db6cc8f"><rect x="0" width="62" y="0" height="95"/></clipPath><clipPath id="afb412886e"><path d="M 67.566406 107.71875 L 129.929688 107.71875 L 129.929688 161.949219 L 67.566406 161.949219 Z M 67.566406 107.71875 " clip-rule="nonzero"/></clipPath><clipPath id="b523ba6f51"><path d="M 116.78125 107.984375 C 120.992188 107.976562 125.191406 107.984375 129.722656 107.984375 C 123.882812 118.113281 118.191406 127.992188 112.367188 138.085938 C 104.28125 132.238281 96.320312 126.484375 88.363281 120.730469 C 88.234375 120.847656 88.105469 120.953125 87.980469 121.066406 C 92.71875 129.515625 97.445312 137.953125 102.183594 146.402344 C 102.28125 146.25 102.390625 146.097656 102.488281 145.941406 C 103.0625 146.210938 103.78125 146.339844 104.179688 146.761719 C 105.777344 148.460938 105.695312 150.113281 104.332031 152.117188 C 102.3125 155.09375 100.683594 158.339844 98.6875 161.8125 C 88.296875 143.832031 78.050781 126.101562 67.679688 108.144531 C 68.394531 108.074219 68.945312 107.976562 69.488281 107.976562 C 75.667969 107.96875 81.84375 107.914062 88.027344 108.023438 C 89.214844 108.042969 90.566406 108.449219 91.539062 109.125 C 97.285156 113.109375 102.941406 117.21875 108.824219 121.425781 C 110.714844 118.222656 112.527344 115.136719 114.410156 111.9375 Z M 116.78125 107.984375 " clip-rule="nonzero"/></clipPath><clipPath id="811b2e48bb"><path d="M 0.566406 0.828125 L 62.855469 0.828125 L 62.855469 54.949219 L 0.566406 54.949219 Z M 0.566406 0.828125 " clip-rule="nonzero"/></clipPath><clipPath id="376f4c70de"><path d="M 49.78125 0.984375 C 53.992188 0.976562 58.191406 0.984375 62.722656 0.984375 C 56.882812 11.113281 51.191406 20.992188 45.367188 31.085938 C 37.28125 25.238281 29.320312 19.484375 21.363281 13.730469 C 21.234375 13.847656 21.105469 13.953125 20.980469 14.066406 C 25.71875 22.515625 30.445312 30.953125 35.183594 39.402344 C 35.28125 39.25 35.390625 39.097656 35.488281 38.941406 C 36.0625 39.210938 36.78125 39.339844 37.179688 39.761719 C 38.777344 41.460938 38.695312 43.113281 37.332031 45.117188 C 35.3125 48.09375 33.683594 51.339844 31.6875 54.8125 C 21.296875 36.832031 11.050781 19.101562 0.679688 1.144531 C 1.394531 1.074219 1.945312 0.976562 2.488281 0.976562 C 8.667969 0.96875 14.84375 0.914062 21.027344 1.023438 C 22.214844 1.042969 23.566406 1.449219 24.539062 2.125 C 30.285156 6.109375 35.941406 10.21875 41.824219 14.425781 C 43.714844 11.222656 45.527344 8.136719 47.410156 4.9375 Z M 49.78125 0.984375 " clip-rule="nonzero"/></clipPath><clipPath id="811f7a6daa"><rect x="0" width="63" y="0" height="55"/></clipPath><clipPath id="9dde510978"><path d="M 84.738281 126.25 L 127 126.25 L 127 194 L 84.738281 194 Z M 84.738281 126.25 " clip-rule="nonzero"/></clipPath><clipPath id="b6603eb790"><path d="M 123.601562 126.5 C 134.386719 153.289062 117.507812 188.082031 84.78125 193.773438 C 86.480469 190.820312 88.019531 188.042969 89.6875 185.332031 C 89.992188 184.835938 90.789062 184.597656 91.402344 184.347656 C 110.972656 176.257812 121.65625 157.828125 118.910156 136.984375 C 118.773438 135.949219 118.96875 134.71875 119.4375 133.792969 C 120.683594 131.328125 122.167969 128.980469 123.601562 126.507812 " clip-rule="nonzero"/></clipPath><clipPath id="8fbc15d1dd"><path d="M 0.738281 0.277344 L 43 0.277344 L 43 67.839844 L 0.738281 67.839844 Z M 0.738281 0.277344 " clip-rule="nonzero"/></clipPath><clipPath id="c8e08e9476"><path d="M 39.601562 0.5 C 50.386719 27.289062 33.507812 62.082031 0.78125 67.773438 C 2.480469 64.820312 4.019531 62.042969 5.6875 59.332031 C 5.992188 58.835938 6.789062 58.597656 7.402344 58.347656 C 26.972656 50.257812 37.65625 31.828125 34.910156 10.984375 C 34.773438 9.949219 34.96875 8.71875 35.4375 7.792969 C 36.683594 5.328125 38.167969 2.980469 39.601562 0.507812 " clip-rule="nonzero"/></clipPath><clipPath id="52548ba0b1"><rect x="0" width="43" y="0" height="68"/></clipPath><clipPath id="8550cd9136"><path d="M 24.179688 126.25 L 66.660156 126.25 L 66.660156 194 L 24.179688 194 Z M 24.179688 126.25 " clip-rule="nonzero"/></clipPath><clipPath id="4bea207597"><path d="M 27.746094 126.410156 C 29.339844 129.171875 30.9375 131.804688 32.367188 134.519531 C 32.707031 135.15625 32.628906 136.101562 32.515625 136.875 C 29.460938 156.640625 40.371094 176.175781 58.867188 183.839844 C 60.78125 184.636719 62.179688 185.679688 63.113281 187.546875 C 64.136719 189.617188 65.378906 191.585938 66.59375 193.710938 C 36.628906 188.945312 16.554688 156.449219 27.753906 126.410156 " clip-rule="nonzero"/></clipPath><clipPath id="27cc907695"><path d="M 0.179688 0.277344 L 42.605469 0.277344 L 42.605469 67.839844 L 0.179688 67.839844 Z M 0.179688 0.277344 " clip-rule="nonzero"/></clipPath><clipPath id="db9ff2e443"><path d="M 3.746094 0.410156 C 5.339844 3.171875 6.9375 5.804688 8.367188 8.519531 C 8.707031 9.15625 8.628906 10.101562 8.515625 10.875 C 5.460938 30.640625 16.371094 50.175781 34.867188 57.839844 C 36.78125 58.636719 38.179688 59.679688 39.113281 61.546875 C 40.136719 63.617188 41.378906 65.585938 42.59375 67.710938 C 12.628906 62.945312 -7.445312 30.449219 3.753906 0.410156 " clip-rule="nonzero"/></clipPath><clipPath id="9b94c4cfe4"><rect x="0" width="43" y="0" height="68"/></clipPath><clipPath id="f21ee68059"><path d="M 43.613281 92.355469 L 107.332031 92.355469 L 107.332031 104.105469 L 43.613281 104.105469 Z M 43.613281 92.355469 " clip-rule="nonzero"/></clipPath><clipPath id="894376d5de"><path d="M 107.269531 103.957031 C 102.992188 103.957031 98.707031 104.15625 94.453125 103.875 C 92.503906 103.746094 90.621094 102.65625 88.691406 102.039062 C 79.160156 98.953125 69.730469 99.453125 60.320312 102.734375 C 58.316406 103.429688 56.128906 103.78125 54 103.914062 C 50.769531 104.105469 47.527344 103.964844 43.617188 103.964844 C 50.75 98.167969 58.355469 94.738281 66.800781 93.339844 C 81.761719 90.859375 95.3125 94.292969 107.269531 103.949219 " clip-rule="nonzero"/></clipPath><clipPath id="528a122862"><path d="M 0.613281 0.355469 L 64.332031 0.355469 L 64.332031 12.105469 L 0.613281 12.105469 Z M 0.613281 0.355469 " clip-rule="nonzero"/></clipPath><clipPath id="3a67e9ae71"><path d="M 64.269531 11.957031 C 59.992188 11.957031 55.707031 12.15625 51.453125 11.875 C 49.503906 11.746094 47.621094 10.65625 45.691406 10.039062 C 36.160156 6.953125 26.730469 7.453125 17.320312 10.734375 C 15.316406 11.429688 13.128906 11.78125 11 11.914062 C 7.769531 12.105469 4.527344 11.964844 0.617188 11.964844 C 7.75 6.167969 15.355469 2.738281 23.800781 1.339844 C 38.761719 -1.140625 52.3125 2.292969 64.269531 11.949219 " clip-rule="nonzero"/></clipPath><clipPath id="a02777f684"><rect x="0" width="65" y="0" height="13"/></clipPath><clipPath id="80690ecde9"><path d="M 40 118.113281 L 69.371094 118.113281 L 69.371094 155 L 40 155 Z M 40 118.113281 " clip-rule="nonzero"/></clipPath><clipPath id="b4d834a2f1"><path d="M 61.09375 154.8125 C 54.054688 142.636719 47.242188 130.863281 40.242188 118.742188 C 41.175781 118.648438 41.789062 118.542969 42.40625 118.535156 C 46.699219 118.519531 51 118.441406 55.292969 118.582031 C 56.128906 118.613281 57.273438 119.269531 57.703125 119.980469 C 61.453125 126.246094 65.085938 132.582031 68.683594 138.933594 C 69.027344 139.546875 69.226562 140.617188 68.929688 141.160156 C 66.464844 145.636719 63.863281 150.027344 61.101562 154.8125 " clip-rule="nonzero"/></clipPath><clipPath id="d31d7ab34e"><path d="M 0.0117188 0.371094 L 29.238281 0.371094 L 29.238281 37 L 0.0117188 37 Z M 0.0117188 0.371094 " clip-rule="nonzero"/></clipPath><clipPath id="2a9307a0cb"><path d="M 21.09375 36.8125 C 14.054688 24.636719 7.242188 12.863281 0.242188 0.742188 C 1.175781 0.648438 1.789062 0.542969 2.40625 0.535156 C 6.699219 0.519531 11 0.441406 15.292969 0.582031 C 16.128906 0.613281 17.273438 1.269531 17.703125 1.980469 C 21.453125 8.246094 25.085938 14.582031 28.683594 20.933594 C 29.027344 21.546875 29.226562 22.617188 28.929688 23.160156 C 26.464844 27.636719 23.863281 32.027344 21.101562 36.8125 " clip-rule="nonzero"/></clipPath><clipPath id="426d3a3366"><rect x="0" width="30" y="0" height="37"/></clipPath><clipPath id="fe782b0c35"><path d="M 146.785156 158.742188 L 165.125 158.742188 L 165.125 182 L 146.785156 182 Z M 146.785156 158.742188 " clip-rule="nonzero"/></clipPath><clipPath id="b5afa28a66"><path d="M 160.730469 158.882812 L 165.039062 158.882812 L 165.039062 181.886719 L 160.378906 181.886719 L 151.144531 166.886719 L 151.144531 181.886719 L 146.828125 181.886719 L 146.828125 158.882812 L 151.328125 158.882812 L 160.730469 174.242188 Z M 160.730469 158.882812 " clip-rule="nonzero"/></clipPath><clipPath id="cdc3092281"><path d="M 0.785156 0.859375 L 19.074219 0.859375 L 19.074219 24 L 0.785156 24 Z M 0.785156 0.859375 " clip-rule="nonzero"/></clipPath><clipPath id="2e1669d1c1"><path d="M 14.730469 0.882812 L 19.039062 0.882812 L 19.039062 23.886719 L 14.378906 23.886719 L 5.144531 8.886719 L 5.144531 23.886719 L 0.828125 23.886719 L 0.828125 0.882812 L 5.328125 0.882812 L 14.730469 16.242188 Z M 14.730469 0.882812 " clip-rule="nonzero"/></clipPath><clipPath id="1e55a3b7f2"><rect x="0" width="20" y="0" height="24"/></clipPath><clipPath id="bf704b6aa1"><path d="M 169.78125 152.628906 L 185.644531 152.628906 L 185.644531 181.882812 L 169.78125 181.882812 Z M 169.78125 152.628906 " clip-rule="nonzero"/></clipPath><clipPath id="7bb3eaf441"><path d="M 175.085938 157.300781 L 177.046875 152.671875 L 182.1875 152.671875 L 178.125 157.300781 Z M 174.503906 162.773438 L 174.503906 168.027344 L 184.167969 168.027344 L 184.167969 171.921875 L 174.503906 171.921875 L 174.503906 177.992188 L 185.578125 177.992188 L 185.578125 181.878906 L 169.875 181.878906 L 169.875 158.882812 L 185.035156 158.882812 L 185.035156 162.773438 Z M 174.503906 162.773438 " clip-rule="nonzero"/></clipPath><clipPath id="e857b130e3"><path d="M 0.863281 0.628906 L 16.644531 0.628906 L 16.644531 29.882812 L 0.863281 29.882812 Z M 0.863281 0.628906 " clip-rule="nonzero"/></clipPath><clipPath id="29405179b8"><path d="M 6.085938 5.300781 L 8.046875 0.671875 L 13.1875 0.671875 L 9.125 5.300781 Z M 5.503906 10.773438 L 5.503906 16.027344 L 15.167969 16.027344 L 15.167969 19.921875 L 5.503906 19.921875 L 5.503906 25.992188 L 16.578125 25.992188 L 16.578125 29.878906 L 0.875 29.878906 L 0.875 6.882812 L 16.035156 6.882812 L 16.035156 10.773438 Z M 5.503906 10.773438 " clip-rule="nonzero"/></clipPath><clipPath id="f8ce968f6b"><rect x="0" width="17" y="0" height="30"/></clipPath><clipPath id="9db99b42da"><path d="M 188.410156 158.449219 L 209.65625 158.449219 L 209.65625 182.316406 L 188.410156 182.316406 Z M 188.410156 158.449219 " clip-rule="nonzero"/></clipPath><clipPath id="931e336909"><path d="M 199.703125 162.472656 C 197.703125 162.472656 196.136719 163.117188 195.003906 164.402344 C 193.871094 165.6875 193.304688 167.59375 193.304688 170.109375 C 193.304688 171.808594 193.550781 173.261719 194.03125 174.488281 C 194.515625 175.710938 195.234375 176.652344 196.191406 177.300781 C 197.144531 177.953125 198.292969 178.28125 199.65625 178.28125 C 200.628906 178.28125 201.589844 178.136719 202.53125 177.84375 C 203.472656 177.554688 204.292969 177.125 204.972656 176.574219 L 204.972656 173.429688 L 199.601562 173.429688 L 199.601562 169.535156 L 209.601562 169.535156 L 209.601562 178.703125 C 208.898438 179.375 208.027344 179.980469 206.972656 180.523438 C 205.914062 181.066406 204.757812 181.496094 203.496094 181.808594 C 202.234375 182.121094 200.964844 182.285156 199.679688 182.285156 C 197.335938 182.285156 195.324219 181.785156 193.648438 180.785156 C 191.972656 179.78125 190.695312 178.390625 189.824219 176.589844 C 188.953125 174.792969 188.515625 172.703125 188.515625 170.332031 C 188.515625 167.960938 188.980469 165.878906 189.90625 164.09375 C 190.832031 162.3125 192.148438 160.933594 193.847656 159.964844 C 195.546875 158.992188 197.5 158.503906 199.71875 158.503906 C 202.339844 158.503906 204.445312 159.066406 206.023438 160.191406 C 207.597656 161.316406 208.707031 163.007812 209.335938 165.242188 L 204.707031 166.109375 C 204.371094 164.929688 203.789062 164.027344 202.945312 163.40625 C 202.105469 162.785156 201.03125 162.480469 199.71875 162.480469 " clip-rule="nonzero"/></clipPath><clipPath id="c1d272d10d"><path d="M 0.410156 0.449219 L 21.636719 0.449219 L 21.636719 24.316406 L 0.410156 24.316406 Z M 0.410156 0.449219 " clip-rule="nonzero"/></clipPath><clipPath id="15473133c9"><path d="M 11.703125 4.472656 C 9.703125 4.472656 8.136719 5.117188 7.003906 6.402344 C 5.871094 7.6875 5.304688 9.59375 5.304688 12.109375 C 5.304688 13.808594 5.550781 15.261719 6.03125 16.488281 C 6.515625 17.710938 7.234375 18.652344 8.191406 19.300781 C 9.144531 19.953125 10.292969 20.28125 11.65625 20.28125 C 12.628906 20.28125 13.589844 20.136719 14.53125 19.84375 C 15.472656 19.554688 16.292969 19.125 16.972656 18.574219 L 16.972656 15.429688 L 11.601562 15.429688 L 11.601562 11.535156 L 21.601562 11.535156 L 21.601562 20.703125 C 20.898438 21.375 20.027344 21.980469 18.972656 22.523438 C 17.914062 23.066406 16.757812 23.496094 15.496094 23.808594 C 14.234375 24.121094 12.964844 24.285156 11.679688 24.285156 C 9.335938 24.285156 7.324219 23.785156 5.648438 22.785156 C 3.972656 21.78125 2.695312 20.390625 1.824219 18.589844 C 0.953125 16.792969 0.515625 14.703125 0.515625 12.332031 C 0.515625 9.960938 0.980469 7.878906 1.90625 6.09375 C 2.832031 4.3125 4.148438 2.933594 5.847656 1.964844 C 7.546875 0.992188 9.5 0.503906 11.71875 0.503906 C 14.339844 0.503906 16.445312 1.066406 18.023438 2.191406 C 19.597656 3.316406 20.707031 5.007812 21.335938 7.242188 L 16.707031 8.109375 C 16.371094 6.929688 15.789062 6.027344 14.945312 5.40625 C 14.105469 4.785156 13.03125 4.480469 11.71875 4.480469 " clip-rule="nonzero"/></clipPath><clipPath id="c3486487cb"><rect x="0" width="22" y="0" height="25"/></clipPath><clipPath id="c4ea800d64"><path d="M 212.859375 158.449219 L 235.417969 158.449219 L 235.417969 182.316406 L 212.859375 182.316406 Z M 212.859375 158.449219 " clip-rule="nonzero"/></clipPath><clipPath id="2865c8554b"><path d="M 224.140625 162.472656 C 222.824219 162.472656 221.675781 162.808594 220.714844 163.484375 C 219.75 164.15625 219.007812 165.089844 218.496094 166.285156 C 217.980469 167.476562 217.730469 168.839844 217.730469 170.378906 C 217.730469 171.914062 217.980469 173.277344 218.480469 174.472656 C 218.976562 175.664062 219.71875 176.597656 220.691406 177.273438 C 221.660156 177.945312 222.824219 178.28125 224.171875 178.28125 C 225.503906 178.28125 226.652344 177.945312 227.613281 177.277344 C 228.578125 176.613281 229.320312 175.671875 229.828125 174.472656 C 230.332031 173.269531 230.582031 171.886719 230.582031 170.316406 C 230.582031 168.808594 230.332031 167.460938 229.828125 166.277344 C 229.320312 165.089844 228.578125 164.15625 227.613281 163.484375 C 226.652344 162.808594 225.488281 162.472656 224.140625 162.472656 M 212.921875 170.507812 C 212.921875 168.082031 213.382812 165.960938 214.292969 164.164062 C 215.203125 162.367188 216.511719 160.964844 218.210938 159.972656 C 219.910156 158.976562 221.882812 158.488281 224.140625 158.488281 C 226.414062 158.488281 228.394531 158.976562 230.085938 159.964844 C 231.777344 160.949219 233.085938 162.335938 234.003906 164.132812 C 234.921875 165.933594 235.382812 168.019531 235.382812 170.40625 C 235.382812 172.726562 234.929688 174.792969 234.027344 176.582031 C 233.125 178.375 231.824219 179.773438 230.148438 180.777344 C 228.472656 181.777344 226.484375 182.277344 224.203125 182.277344 C 221.921875 182.277344 219.933594 181.777344 218.226562 180.792969 C 216.519531 179.804688 215.210938 178.417969 214.292969 176.636719 C 213.375 174.855469 212.921875 172.8125 212.921875 170.507812 " clip-rule="nonzero"/></clipPath><clipPath id="896054c34b"><path d="M 0.859375 0.449219 L 23.417969 0.449219 L 23.417969 24.316406 L 0.859375 24.316406 Z M 0.859375 0.449219 " clip-rule="nonzero"/></clipPath><clipPath id="690013f12a"><path d="M 12.140625 4.472656 C 10.824219 4.472656 9.675781 4.808594 8.714844 5.484375 C 7.75 6.15625 7.007812 7.089844 6.496094 8.285156 C 5.980469 9.476562 5.730469 10.839844 5.730469 12.378906 C 5.730469 13.914062 5.980469 15.277344 6.480469 16.472656 C 6.976562 17.664062 7.71875 18.597656 8.691406 19.273438 C 9.660156 19.945312 10.824219 20.28125 12.171875 20.28125 C 13.503906 20.28125 14.652344 19.945312 15.613281 19.277344 C 16.578125 18.613281 17.320312 17.671875 17.828125 16.472656 C 18.332031 15.269531 18.582031 13.886719 18.582031 12.316406 C 18.582031 10.808594 18.332031 9.460938 17.828125 8.277344 C 17.320312 7.089844 16.578125 6.15625 15.613281 5.484375 C 14.652344 4.808594 13.488281 4.472656 12.140625 4.472656 M 0.921875 12.507812 C 0.921875 10.082031 1.382812 7.960938 2.292969 6.164062 C 3.203125 4.367188 4.511719 2.964844 6.210938 1.972656 C 7.910156 0.976562 9.882812 0.488281 12.140625 0.488281 C 14.414062 0.488281 16.394531 0.976562 18.085938 1.964844 C 19.777344 2.949219 21.085938 4.335938 22.003906 6.132812 C 22.921875 7.933594 23.382812 10.019531 23.382812 12.40625 C 23.382812 14.726562 22.929688 16.792969 22.027344 18.582031 C 21.125 20.375 19.824219 21.773438 18.148438 22.777344 C 16.472656 23.777344 14.484375 24.277344 12.203125 24.277344 C 9.921875 24.277344 7.933594 23.777344 6.226562 22.792969 C 4.519531 21.804688 3.210938 20.417969 2.292969 18.636719 C 1.375 16.855469 0.921875 14.8125 0.921875 12.507812 " clip-rule="nonzero"/></clipPath><clipPath id="ff118a1835"><rect x="0" width="24" y="0" height="25"/></clipPath><clipPath id="8cdbbc11e9"><path d="M 238.035156 158.449219 L 258.847656 158.449219 L 258.847656 182.316406 L 238.035156 182.316406 Z M 238.035156 158.449219 " clip-rule="nonzero"/></clipPath><clipPath id="80b461d66a"><path d="M 248.847656 162.472656 C 247.585938 162.472656 246.507812 162.808594 245.621094 163.476562 C 244.730469 164.140625 244.058594 165.066406 243.613281 166.246094 C 243.171875 167.425781 242.941406 168.769531 242.941406 170.285156 C 242.941406 171.90625 243.171875 173.316406 243.628906 174.523438 C 244.089844 175.734375 244.761719 176.660156 245.632812 177.308594 C 246.507812 177.960938 247.5625 178.289062 248.785156 178.289062 C 249.644531 178.289062 250.441406 178.097656 251.175781 177.722656 C 251.910156 177.347656 252.527344 176.804688 253.050781 176.109375 C 253.570312 175.414062 253.945312 174.578125 254.1875 173.628906 L 258.789062 174.714844 C 258.4375 176.230469 257.816406 177.554688 256.929688 178.695312 C 256.039062 179.835938 254.921875 180.714844 253.5625 181.34375 C 252.199219 181.96875 250.652344 182.285156 248.917969 182.285156 C 246.660156 182.285156 244.722656 181.800781 243.109375 180.835938 C 241.496094 179.875 240.269531 178.488281 239.421875 176.675781 C 238.570312 174.863281 238.152344 172.703125 238.152344 170.203125 C 238.152344 167.804688 238.585938 165.726562 239.460938 163.964844 C 240.332031 162.207031 241.578125 160.851562 243.203125 159.910156 C 244.824219 158.96875 246.730469 158.496094 248.910156 158.496094 C 251.417969 158.496094 253.484375 159.0625 255.105469 160.199219 C 256.730469 161.339844 257.863281 163.015625 258.511719 165.242188 L 253.929688 166.335938 C 253.164062 163.765625 251.472656 162.480469 248.847656 162.480469 " clip-rule="nonzero"/></clipPath><clipPath id="5d0d8d0509"><path d="M 0.144531 0.449219 L 20.847656 0.449219 L 20.847656 24.316406 L 0.144531 24.316406 Z M 0.144531 0.449219 " clip-rule="nonzero"/></clipPath><clipPath id="b047714bf3"><path d="M 10.847656 4.472656 C 9.585938 4.472656 8.507812 4.808594 7.621094 5.476562 C 6.730469 6.140625 6.058594 7.066406 5.613281 8.246094 C 5.171875 9.425781 4.941406 10.769531 4.941406 12.285156 C 4.941406 13.90625 5.171875 15.316406 5.628906 16.523438 C 6.089844 17.734375 6.761719 18.660156 7.632812 19.308594 C 8.507812 19.960938 9.5625 20.289062 10.785156 20.289062 C 11.644531 20.289062 12.441406 20.097656 13.175781 19.722656 C 13.910156 19.347656 14.527344 18.804688 15.050781 18.109375 C 15.570312 17.414062 15.945312 16.578125 16.1875 15.628906 L 20.789062 16.714844 C 20.4375 18.230469 19.816406 19.554688 18.929688 20.695312 C 18.039062 21.835938 16.921875 22.714844 15.5625 23.34375 C 14.199219 23.96875 12.652344 24.285156 10.917969 24.285156 C 8.660156 24.285156 6.722656 23.800781 5.109375 22.835938 C 3.496094 21.875 2.269531 20.488281 1.421875 18.675781 C 0.570312 16.863281 0.152344 14.703125 0.152344 12.203125 C 0.152344 9.804688 0.585938 7.726562 1.460938 5.964844 C 2.332031 4.207031 3.578125 2.851562 5.203125 1.910156 C 6.824219 0.96875 8.730469 0.496094 10.910156 0.496094 C 13.417969 0.496094 15.484375 1.0625 17.105469 2.199219 C 18.730469 3.339844 19.863281 5.015625 20.511719 7.242188 L 15.929688 8.335938 C 15.164062 5.765625 13.472656 4.480469 10.847656 4.480469 " clip-rule="nonzero"/></clipPath><clipPath id="f07eaf82da"><rect x="0" width="21" y="0" height="25"/></clipPath><clipPath id="27b81f62d7"><path d="M 262.484375 158.882812 L 277.640625 158.882812 L 277.640625 162.773438 L 262.484375 162.773438 Z M 262.484375 162.773438 L 267.113281 162.773438 L 267.113281 168.027344 L 262.484375 168.027344 Z M 262.484375 168.027344 L 276.777344 168.027344 L 276.777344 171.921875 L 262.484375 171.921875 Z M 262.484375 171.921875 L 267.113281 171.921875 L 267.113281 177.992188 L 262.484375 177.992188 Z M 262.484375 177.992188 L 278.191406 177.992188 L 278.191406 181.878906 L 262.484375 181.878906 Z M 262.484375 177.992188 " clip-rule="nonzero"/></clipPath><clipPath id="f1381bc014"><path d="M 0.484375 0.882812 L 15.640625 0.882812 L 15.640625 4.773438 L 0.484375 4.773438 Z M 0.484375 4.773438 L 5.113281 4.773438 L 5.113281 10.027344 L 0.484375 10.027344 Z M 0.484375 10.027344 L 14.777344 10.027344 L 14.777344 13.921875 L 0.484375 13.921875 Z M 0.484375 13.921875 L 5.113281 13.921875 L 5.113281 19.992188 L 0.484375 19.992188 Z M 0.484375 19.992188 L 16.191406 19.992188 L 16.191406 23.878906 L 0.484375 23.878906 Z M 0.484375 19.992188 " clip-rule="nonzero"/></clipPath><clipPath id="f400ffca59"><rect x="0" width="17" y="0" height="24"/></clipPath><clipPath id="73e92cf8ae"><path d="M 147.742188 111.375 L 171 111.375 L 171 143.414062 L 147.742188 143.414062 Z M 147.742188 111.375 " clip-rule="nonzero"/></clipPath><clipPath id="3fe6449719"><path d="M 164.257812 121.371094 C 164.257812 119.921875 163.820312 118.804688 162.957031 118.019531 C 162.09375 117.230469 160.738281 116.847656 158.917969 116.847656 L 154.171875 116.847656 L 154.171875 125.9375 L 158.910156 125.9375 C 160.835938 125.9375 162.207031 125.546875 163.027344 124.773438 C 163.84375 124 164.25 122.863281 164.25 121.371094 M 170.898438 121.261719 C 170.898438 124.699219 169.925781 127.230469 167.984375 128.867188 C 166.039062 130.503906 163.0625 131.332031 159.023438 131.332031 L 154.171875 131.332031 L 154.171875 143.328125 L 147.761719 143.328125 L 147.761719 111.460938 L 159.023438 111.460938 C 163.125 111.460938 166.132812 112.285156 168.046875 113.941406 C 169.957031 115.59375 170.914062 118.035156 170.914062 121.261719 " clip-rule="nonzero"/></clipPath><clipPath id="3c525779ff"><path d="M 0.742188 0.421875 L 24 0.421875 L 24 32.414062 L 0.742188 32.414062 Z M 0.742188 0.421875 " clip-rule="nonzero"/></clipPath><clipPath id="ef800f9133"><path d="M 17.257812 10.371094 C 17.257812 8.921875 16.820312 7.804688 15.957031 7.019531 C 15.09375 6.230469 13.738281 5.847656 11.917969 5.847656 L 7.171875 5.847656 L 7.171875 14.9375 L 11.910156 14.9375 C 13.835938 14.9375 15.207031 14.546875 16.027344 13.773438 C 16.84375 13 17.25 11.863281 17.25 10.371094 M 23.898438 10.261719 C 23.898438 13.699219 22.925781 16.230469 20.984375 17.867188 C 19.039062 19.503906 16.0625 20.332031 12.023438 20.332031 L 7.171875 20.332031 L 7.171875 32.328125 L 0.761719 32.328125 L 0.761719 0.460938 L 12.023438 0.460938 C 16.125 0.460938 19.132812 1.285156 21.046875 2.941406 C 22.957031 4.59375 23.914062 7.035156 23.914062 10.261719 " clip-rule="nonzero"/></clipPath><clipPath id="d1a0e9a5bb"><rect x="0" width="24" y="0" height="33"/></clipPath><clipPath id="3959ee6172"><path d="M 175.734375 111.460938 L 196.730469 111.460938 L 196.730469 116.855469 L 175.734375 116.855469 Z M 175.734375 116.855469 L 182.148438 116.855469 L 182.148438 124.140625 L 175.734375 124.140625 Z M 175.734375 124.140625 L 195.539062 124.140625 L 195.539062 129.535156 L 175.734375 129.535156 Z M 175.734375 129.535156 L 182.148438 129.535156 L 182.148438 137.933594 L 175.734375 137.933594 Z M 175.734375 137.933594 L 197.496094 137.933594 L 197.496094 143.328125 L 175.734375 143.328125 Z M 175.734375 137.933594 " clip-rule="nonzero"/></clipPath><clipPath id="74f2e56995"><path d="M 0.734375 0.460938 L 21.730469 0.460938 L 21.730469 5.855469 L 0.734375 5.855469 Z M 0.734375 5.855469 L 7.148438 5.855469 L 7.148438 13.140625 L 0.734375 13.140625 Z M 0.734375 13.140625 L 20.539062 13.140625 L 20.539062 18.535156 L 0.734375 18.535156 Z M 0.734375 18.535156 L 7.148438 18.535156 L 7.148438 26.933594 L 0.734375 26.933594 Z M 0.734375 26.933594 L 22.496094 26.933594 L 22.496094 32.328125 L 0.734375 32.328125 Z M 0.734375 26.933594 " clip-rule="nonzero"/></clipPath><clipPath id="355c53ff79"><rect x="0" width="23" y="0" height="33"/></clipPath><clipPath id="3b73c962ce"><path d="M 202.9375 111.375 L 229.269531 111.375 L 229.269531 143.414062 L 202.9375 143.414062 Z M 202.9375 111.375 " clip-rule="nonzero"/></clipPath><clipPath id="bc96e03ea6"><path d="M 220.734375 120.789062 C 220.734375 119.394531 220.3125 118.394531 219.488281 117.765625 C 218.660156 117.136719 217.359375 116.832031 215.609375 116.832031 L 209.386719 116.832031 L 209.386719 124.941406 L 214.84375 124.941406 C 216.785156 124.941406 218.253906 124.628906 219.242188 124.007812 C 220.230469 123.390625 220.734375 122.3125 220.734375 120.796875 M 227.367188 120.40625 C 227.367188 122.65625 226.800781 124.5 225.660156 125.945312 C 224.523438 127.390625 222.777344 128.460938 220.414062 129.144531 L 220.414062 129.226562 C 220.964844 129.433594 221.460938 129.71875 221.914062 130.101562 C 222.363281 130.484375 222.832031 131.035156 223.328125 131.761719 C 223.824219 132.488281 224.375 133.496094 225.003906 134.769531 L 229.195312 143.328125 L 222.15625 143.328125 L 219.113281 136.964844 C 218.039062 134.722656 217.136719 133.144531 216.417969 132.25 C 215.945312 131.652344 215.460938 131.203125 214.996094 130.894531 C 214.527344 130.589844 213.933594 130.359375 213.210938 130.230469 C 212.492188 130.101562 211.523438 130.03125 210.289062 130.03125 L 209.386719 130.03125 L 209.386719 143.328125 L 202.976562 143.328125 L 202.976562 111.460938 L 216.1875 111.460938 C 219.753906 111.460938 222.507812 112.226562 224.453125 113.765625 C 226.398438 115.300781 227.367188 117.511719 227.367188 120.398438 " clip-rule="nonzero"/></clipPath><clipPath id="41c5bdf4b2"><path d="M 0.9375 0.421875 L 27.269531 0.421875 L 27.269531 32.414062 L 0.9375 32.414062 Z M 0.9375 0.421875 " clip-rule="nonzero"/></clipPath><clipPath id="2a9812cd98"><path d="M 18.734375 9.789062 C 18.734375 8.394531 18.3125 7.394531 17.488281 6.765625 C 16.660156 6.136719 15.359375 5.832031 13.609375 5.832031 L 7.386719 5.832031 L 7.386719 13.941406 L 12.84375 13.941406 C 14.785156 13.941406 16.253906 13.628906 17.242188 13.007812 C 18.230469 12.390625 18.734375 11.3125 18.734375 9.796875 M 25.367188 9.40625 C 25.367188 11.65625 24.800781 13.5 23.660156 14.945312 C 22.523438 16.390625 20.777344 17.460938 18.414062 18.144531 L 18.414062 18.226562 C 18.964844 18.433594 19.460938 18.71875 19.914062 19.101562 C 20.363281 19.484375 20.832031 20.035156 21.328125 20.761719 C 21.824219 21.488281 22.375 22.496094 23.003906 23.769531 L 27.195312 32.328125 L 20.15625 32.328125 L 17.113281 25.964844 C 16.039062 23.722656 15.136719 22.144531 14.417969 21.25 C 13.945312 20.652344 13.460938 20.203125 12.996094 19.894531 C 12.527344 19.589844 11.933594 19.359375 11.210938 19.230469 C 10.492188 19.101562 9.523438 19.03125 8.289062 19.03125 L 7.386719 19.03125 L 7.386719 32.328125 L 0.976562 32.328125 L 0.976562 0.460938 L 14.1875 0.460938 C 17.753906 0.460938 20.507812 1.226562 22.453125 2.765625 C 24.398438 4.300781 25.367188 6.511719 25.367188 9.398438 " clip-rule="nonzero"/></clipPath><clipPath id="adb8a5d688"><rect x="0" width="28" y="0" height="33"/></clipPath><clipPath id="b504841fa8"><path d="M 232.921875 111.460938 L 254.332031 111.460938 L 254.332031 116.855469 L 232.921875 116.855469 Z M 232.921875 116.855469 L 239.320312 116.855469 L 239.320312 124.742188 L 232.921875 124.742188 Z M 232.921875 124.742188 L 252.6875 124.742188 L 252.6875 130.117188 L 232.921875 130.117188 Z M 232.921875 130.117188 L 239.320312 130.117188 L 239.320312 143.328125 L 232.921875 143.328125 Z M 232.921875 130.117188 " clip-rule="nonzero"/></clipPath><clipPath id="31bb037fcd"><path d="M 0.921875 0.460938 L 22.332031 0.460938 L 22.332031 5.855469 L 0.921875 5.855469 Z M 0.921875 5.855469 L 7.320312 5.855469 L 7.320312 13.742188 L 0.921875 13.742188 Z M 0.921875 13.742188 L 20.6875 13.742188 L 20.6875 19.117188 L 0.921875 19.117188 Z M 0.921875 19.117188 L 7.320312 19.117188 L 7.320312 32.328125 L 0.921875 32.328125 Z M 0.921875 19.117188 " clip-rule="nonzero"/></clipPath><clipPath id="9bcf04368f"><rect x="0" width="23" y="0" height="33"/></clipPath><clipPath id="b778968d17"><path d="M 258 110.898438 L 289.222656 110.898438 L 289.222656 143.890625 L 258 143.890625 Z M 258 110.898438 " clip-rule="nonzero"/></clipPath><clipPath id="11c4aac6cd"><path d="M 273.613281 116.441406 C 271.785156 116.441406 270.210938 116.910156 268.863281 117.84375 C 267.515625 118.777344 266.5 120.070312 265.789062 121.722656 C 265.074219 123.375 264.722656 125.265625 264.722656 127.398438 C 264.722656 129.535156 265.066406 131.421875 265.765625 133.078125 C 266.460938 134.730469 267.476562 136.023438 268.832031 136.957031 C 270.1875 137.890625 271.785156 138.355469 273.660156 138.355469 C 275.496094 138.355469 277.089844 137.890625 278.433594 136.964844 C 279.78125 136.039062 280.800781 134.738281 281.503906 133.078125 C 282.207031 131.417969 282.558594 129.488281 282.558594 127.316406 C 282.558594 125.226562 282.207031 123.359375 281.503906 121.714844 C 280.800781 120.070312 279.78125 118.777344 278.433594 117.84375 C 277.089844 116.910156 275.488281 116.441406 273.621094 116.441406 M 258.074219 127.566406 C 258.074219 124.207031 258.710938 121.277344 259.980469 118.777344 C 261.25 116.273438 263.054688 114.34375 265.40625 112.976562 C 267.753906 111.605469 270.484375 110.917969 273.613281 110.917969 C 276.761719 110.917969 279.507812 111.597656 281.855469 112.960938 C 284.203125 114.324219 286.011719 116.25 287.289062 118.746094 C 288.566406 121.238281 289.203125 124.140625 289.203125 127.4375 C 289.203125 130.652344 288.574219 133.503906 287.320312 135.992188 C 286.0625 138.480469 284.273438 140.414062 281.941406 141.792969 C 279.605469 143.167969 276.859375 143.867188 273.699219 143.867188 C 270.539062 143.867188 267.777344 143.183594 265.421875 141.816406 C 263.0625 140.445312 261.242188 138.523438 259.972656 136.054688 C 258.703125 133.582031 258.066406 130.75 258.066406 127.566406 " clip-rule="nonzero"/></clipPath><clipPath id="2d81629b2c"><path d="M 0.03125 0.898438 L 31.222656 0.898438 L 31.222656 33.890625 L 0.03125 33.890625 Z M 0.03125 0.898438 " clip-rule="nonzero"/></clipPath><clipPath id="a47522d79d"><path d="M 15.613281 6.441406 C 13.785156 6.441406 12.210938 6.910156 10.863281 7.84375 C 9.515625 8.777344 8.5 10.070312 7.789062 11.722656 C 7.074219 13.375 6.722656 15.265625 6.722656 17.398438 C 6.722656 19.535156 7.066406 21.421875 7.765625 23.078125 C 8.460938 24.730469 9.476562 26.023438 10.832031 26.957031 C 12.1875 27.890625 13.785156 28.355469 15.660156 28.355469 C 17.496094 28.355469 19.089844 27.890625 20.433594 26.964844 C 21.78125 26.039062 22.800781 24.738281 23.503906 23.078125 C 24.207031 21.417969 24.558594 19.488281 24.558594 17.316406 C 24.558594 15.226562 24.207031 13.359375 23.503906 11.714844 C 22.800781 10.070312 21.78125 8.777344 20.433594 7.84375 C 19.089844 6.910156 17.488281 6.441406 15.621094 6.441406 M 0.0742188 17.566406 C 0.0742188 14.207031 0.710938 11.277344 1.980469 8.777344 C 3.25 6.273438 5.054688 4.34375 7.40625 2.976562 C 9.753906 1.605469 12.484375 0.917969 15.613281 0.917969 C 18.761719 0.917969 21.507812 1.597656 23.855469 2.960938 C 26.203125 4.324219 28.011719 6.25 29.289062 8.746094 C 30.566406 11.238281 31.203125 14.140625 31.203125 17.4375 C 31.203125 20.652344 30.574219 23.503906 29.320312 25.992188 C 28.0625 28.480469 26.273438 30.414062 23.941406 31.792969 C 21.605469 33.167969 18.859375 33.867188 15.699219 33.867188 C 12.539062 33.867188 9.777344 33.183594 7.421875 31.816406 C 5.0625 30.445312 3.242188 28.523438 1.972656 26.054688 C 0.703125 23.582031 0.0664062 20.75 0.0664062 17.566406 " clip-rule="nonzero"/></clipPath><clipPath id="8243027aa2"><rect x="0" width="32" y="0" height="34"/></clipPath><clipPath id="689ae6fe84"><path d="M 294.457031 111.375 L 320.789062 111.375 L 320.789062 143.414062 L 294.457031 143.414062 Z M 294.457031 111.375 " clip-rule="nonzero"/></clipPath><clipPath id="3991bb20bc"><path d="M 312.226562 120.789062 C 312.226562 119.394531 311.8125 118.394531 310.976562 117.765625 C 310.144531 117.136719 308.851562 116.832031 307.097656 116.832031 L 300.886719 116.832031 L 300.886719 124.941406 L 306.339844 124.941406 C 308.285156 124.941406 309.746094 124.628906 310.742188 124.007812 C 311.734375 123.390625 312.234375 122.3125 312.234375 120.796875 M 318.867188 120.40625 C 318.867188 122.65625 318.300781 124.5 317.160156 125.945312 C 316.019531 127.390625 314.277344 128.460938 311.910156 129.144531 L 311.910156 129.226562 C 312.460938 129.433594 312.960938 129.71875 313.410156 130.101562 C 313.863281 130.484375 314.328125 131.035156 314.828125 131.761719 C 315.324219 132.488281 315.875 133.496094 316.503906 134.769531 L 320.695312 143.328125 L 313.65625 143.328125 L 310.609375 136.964844 C 309.539062 134.722656 308.636719 133.144531 307.917969 132.25 C 307.441406 131.652344 306.960938 131.203125 306.496094 130.894531 C 306.027344 130.589844 305.429688 130.359375 304.710938 130.230469 C 303.992188 130.101562 303.019531 130.03125 301.789062 130.03125 L 300.894531 130.03125 L 300.894531 143.328125 L 294.480469 143.328125 L 294.480469 111.460938 L 307.679688 111.460938 C 311.246094 111.460938 314 112.226562 315.945312 113.765625 C 317.886719 115.300781 318.859375 117.511719 318.859375 120.398438 " clip-rule="nonzero"/></clipPath><clipPath id="a8dd47e53f"><path d="M 0.457031 0.421875 L 26.789062 0.421875 L 26.789062 32.414062 L 0.457031 32.414062 Z M 0.457031 0.421875 " clip-rule="nonzero"/></clipPath><clipPath id="4675726905"><path d="M 18.226562 9.789062 C 18.226562 8.394531 17.8125 7.394531 16.976562 6.765625 C 16.144531 6.136719 14.851562 5.832031 13.097656 5.832031 L 6.886719 5.832031 L 6.886719 13.941406 L 12.339844 13.941406 C 14.285156 13.941406 15.746094 13.628906 16.742188 13.007812 C 17.734375 12.390625 18.234375 11.3125 18.234375 9.796875 M 24.867188 9.40625 C 24.867188 11.65625 24.300781 13.5 23.160156 14.945312 C 22.019531 16.390625 20.277344 17.460938 17.910156 18.144531 L 17.910156 18.226562 C 18.460938 18.433594 18.960938 18.71875 19.410156 19.101562 C 19.863281 19.484375 20.328125 20.035156 20.828125 20.761719 C 21.324219 21.488281 21.875 22.496094 22.503906 23.769531 L 26.695312 32.328125 L 19.65625 32.328125 L 16.609375 25.964844 C 15.539062 23.722656 14.636719 22.144531 13.917969 21.25 C 13.441406 20.652344 12.960938 20.203125 12.496094 19.894531 C 12.027344 19.589844 11.429688 19.359375 10.710938 19.230469 C 9.992188 19.101562 9.019531 19.03125 7.789062 19.03125 L 6.894531 19.03125 L 6.894531 32.328125 L 0.480469 32.328125 L 0.480469 0.460938 L 13.679688 0.460938 C 17.246094 0.460938 20 1.226562 21.945312 2.765625 C 23.886719 4.300781 24.859375 6.511719 24.859375 9.398438 " clip-rule="nonzero"/></clipPath><clipPath id="0c1eec72ed"><rect x="0" width="27" y="0" height="33"/></clipPath><clipPath id="783824f368"><path d="M 322.535156 110.898438 L 348 110.898438 L 348 143.890625 L 322.535156 143.890625 Z M 322.535156 110.898438 " clip-rule="nonzero"/></clipPath><clipPath id="118b364bf2"><path d="M 334.828125 116.21875 C 333.464844 116.21875 332.324219 116.496094 331.398438 117.046875 C 330.472656 117.597656 330.023438 118.371094 330.023438 119.371094 C 330.023438 120.039062 330.230469 120.613281 330.652344 121.078125 C 331.070312 121.546875 331.789062 121.980469 332.800781 122.371094 C 333.8125 122.761719 335.257812 123.175781 337.125 123.613281 C 339.933594 124.261719 342.128906 125.050781 343.695312 125.96875 C 345.265625 126.886719 346.367188 127.988281 347.003906 129.273438 C 347.636719 130.558594 347.941406 132.144531 347.941406 134.046875 C 347.941406 136.253906 347.371094 138.089844 346.214844 139.558594 C 345.058594 141.027344 343.542969 142.113281 341.660156 142.816406 C 339.777344 143.519531 337.714844 143.871094 335.464844 143.871094 C 331.859375 143.871094 328.9375 142.953125 326.703125 141.109375 C 324.46875 139.265625 323.105469 136.625 322.617188 133.175781 L 329.027344 132.394531 C 329.402344 134.484375 330.121094 136.015625 331.171875 137 C 332.21875 137.988281 333.710938 138.480469 335.640625 138.480469 C 336.800781 138.480469 337.828125 138.316406 338.714844 137.988281 C 339.601562 137.660156 340.300781 137.199219 340.789062 136.613281 C 341.277344 136.023438 341.53125 135.320312 341.53125 134.5 C 341.53125 133.574219 341.355469 132.847656 340.996094 132.328125 C 340.636719 131.804688 339.945312 131.332031 338.90625 130.902344 C 337.867188 130.476562 336.25 130 334.046875 129.480469 C 331.453125 128.859375 329.402344 128.085938 327.894531 127.175781 C 326.386719 126.265625 325.316406 125.210938 324.691406 124.023438 C 324.0625 122.839844 323.75 121.445312 323.75 119.855469 C 323.75 118.117188 324.191406 116.570312 325.085938 115.226562 C 325.984375 113.878906 327.277344 112.824219 328.988281 112.066406 C 330.703125 111.308594 332.753906 110.917969 335.132812 110.917969 C 338.554688 110.917969 341.277344 111.707031 343.296875 113.273438 C 345.320312 114.84375 346.582031 117.128906 347.070312 120.128906 L 340.660156 120.847656 C 340.453125 119.195312 339.886719 118.011719 338.945312 117.300781 C 338.003906 116.585938 336.632812 116.21875 334.835938 116.21875 " clip-rule="nonzero"/></clipPath><clipPath id="5f6badde0f"><path d="M 0.535156 0.898438 L 26 0.898438 L 26 33.890625 L 0.535156 33.890625 Z M 0.535156 0.898438 " clip-rule="nonzero"/></clipPath><clipPath id="37c69a1e9a"><path d="M 12.828125 6.21875 C 11.464844 6.21875 10.324219 6.496094 9.398438 7.046875 C 8.472656 7.597656 8.023438 8.371094 8.023438 9.371094 C 8.023438 10.039062 8.230469 10.613281 8.652344 11.078125 C 9.070312 11.546875 9.789062 11.980469 10.800781 12.371094 C 11.8125 12.761719 13.257812 13.175781 15.125 13.613281 C 17.933594 14.261719 20.128906 15.050781 21.695312 15.96875 C 23.265625 16.886719 24.367188 17.988281 25.003906 19.273438 C 25.636719 20.558594 25.941406 22.144531 25.941406 24.046875 C 25.941406 26.253906 25.371094 28.089844 24.214844 29.558594 C 23.058594 31.027344 21.542969 32.113281 19.660156 32.816406 C 17.777344 33.519531 15.714844 33.871094 13.464844 33.871094 C 9.859375 33.871094 6.9375 32.953125 4.703125 31.109375 C 2.46875 29.265625 1.105469 26.625 0.617188 23.175781 L 7.027344 22.394531 C 7.402344 24.484375 8.121094 26.015625 9.171875 27 C 10.21875 27.988281 11.710938 28.480469 13.640625 28.480469 C 14.800781 28.480469 15.828125 28.316406 16.714844 27.988281 C 17.601562 27.660156 18.300781 27.199219 18.789062 26.613281 C 19.277344 26.023438 19.53125 25.320312 19.53125 24.5 C 19.53125 23.574219 19.355469 22.847656 18.996094 22.328125 C 18.636719 21.804688 17.945312 21.332031 16.90625 20.902344 C 15.867188 20.476562 14.25 20 12.046875 19.480469 C 9.453125 18.859375 7.402344 18.085938 5.894531 17.175781 C 4.386719 16.265625 3.316406 15.210938 2.691406 14.023438 C 2.0625 12.839844 1.75 11.445312 1.75 9.855469 C 1.75 8.117188 2.191406 6.570312 3.085938 5.226562 C 3.984375 3.878906 5.277344 2.824219 6.988281 2.066406 C 8.703125 1.308594 10.753906 0.917969 13.132812 0.917969 C 16.554688 0.917969 19.277344 1.707031 21.296875 3.273438 C 23.320312 4.84375 24.582031 7.128906 25.070312 10.128906 L 18.660156 10.847656 C 18.453125 9.195312 17.886719 8.011719 16.945312 7.300781 C 16.003906 6.585938 14.632812 6.21875 12.835938 6.21875 " clip-rule="nonzero"/></clipPath><clipPath id="69a4953913"><rect x="0" width="26" y="0" height="34"/></clipPath><clipPath id="3a39e67b70"><path d="M 351.71875 110.898438 L 382.964844 110.898438 L 382.964844 143.890625 L 351.71875 143.890625 Z M 351.71875 110.898438 " clip-rule="nonzero"/></clipPath><clipPath id="9efdd877ab"><path d="M 367.324219 116.441406 C 365.496094 116.441406 363.917969 116.910156 362.574219 117.84375 C 361.226562 118.777344 360.207031 120.070312 359.496094 121.722656 C 358.785156 123.375 358.433594 125.265625 358.433594 127.398438 C 358.433594 129.535156 358.777344 131.421875 359.472656 133.078125 C 360.171875 134.730469 361.1875 136.023438 362.542969 136.957031 C 363.898438 137.890625 365.496094 138.355469 367.371094 138.355469 C 369.207031 138.355469 370.796875 137.890625 372.144531 136.964844 C 373.492188 136.039062 374.511719 134.738281 375.214844 133.078125 C 375.917969 131.417969 376.269531 129.488281 376.269531 127.316406 C 376.269531 125.226562 375.917969 123.359375 375.214844 121.714844 C 374.511719 120.070312 373.492188 118.777344 372.144531 117.84375 C 370.796875 116.910156 369.199219 116.441406 367.332031 116.441406 M 351.785156 127.566406 C 351.785156 124.207031 352.417969 121.277344 353.691406 118.777344 C 354.960938 116.273438 356.765625 114.34375 359.113281 112.976562 C 361.464844 111.605469 364.195312 110.917969 367.324219 110.917969 C 370.46875 110.917969 373.214844 111.597656 375.566406 112.960938 C 377.914062 114.324219 379.71875 116.25 381 118.746094 C 382.277344 121.238281 382.910156 124.140625 382.910156 127.4375 C 382.910156 130.652344 382.285156 133.503906 381.027344 135.992188 C 379.773438 138.480469 377.984375 140.414062 375.648438 141.792969 C 373.316406 143.167969 370.570312 143.867188 367.410156 143.867188 C 364.25 143.867188 361.488281 143.183594 359.128906 141.816406 C 356.773438 140.445312 354.953125 138.523438 353.683594 136.054688 C 352.410156 133.582031 351.777344 130.75 351.777344 127.566406 " clip-rule="nonzero"/></clipPath><clipPath id="09a09d920c"><path d="M 0.71875 0.898438 L 31.964844 0.898438 L 31.964844 33.890625 L 0.71875 33.890625 Z M 0.71875 0.898438 " clip-rule="nonzero"/></clipPath><clipPath id="20874667d3"><path d="M 16.324219 6.441406 C 14.496094 6.441406 12.917969 6.910156 11.574219 7.84375 C 10.226562 8.777344 9.207031 10.070312 8.496094 11.722656 C 7.785156 13.375 7.433594 15.265625 7.433594 17.398438 C 7.433594 19.535156 7.777344 21.421875 8.472656 23.078125 C 9.171875 24.730469 10.1875 26.023438 11.542969 26.957031 C 12.898438 27.890625 14.496094 28.355469 16.371094 28.355469 C 18.207031 28.355469 19.796875 27.890625 21.144531 26.964844 C 22.492188 26.039062 23.511719 24.738281 24.214844 23.078125 C 24.917969 21.417969 25.269531 19.488281 25.269531 17.316406 C 25.269531 15.226562 24.917969 13.359375 24.214844 11.714844 C 23.511719 10.070312 22.492188 8.777344 21.144531 7.84375 C 19.796875 6.910156 18.199219 6.441406 16.332031 6.441406 M 0.785156 17.566406 C 0.785156 14.207031 1.417969 11.277344 2.691406 8.777344 C 3.960938 6.273438 5.765625 4.34375 8.113281 2.976562 C 10.464844 1.605469 13.195312 0.917969 16.324219 0.917969 C 19.46875 0.917969 22.214844 1.597656 24.566406 2.960938 C 26.914062 4.324219 28.71875 6.25 30 8.746094 C 31.277344 11.238281 31.910156 14.140625 31.910156 17.4375 C 31.910156 20.652344 31.285156 23.503906 30.027344 25.992188 C 28.773438 28.480469 26.984375 30.414062 24.648438 31.792969 C 22.316406 33.167969 19.570312 33.867188 16.410156 33.867188 C 13.25 33.867188 10.488281 33.183594 8.128906 31.816406 C 5.773438 30.445312 3.953125 28.523438 2.683594 26.054688 C 1.410156 23.582031 0.777344 20.75 0.777344 17.566406 " clip-rule="nonzero"/></clipPath><clipPath id="fbea2fd43c"><rect x="0" width="32" y="0" height="34"/></clipPath><clipPath id="fd67bb26cb"><path d="M 388.175781 111.460938 L 394.585938 111.460938 L 394.585938 137.933594 L 388.175781 137.933594 Z M 388.175781 137.933594 L 408.820312 137.933594 L 408.820312 143.328125 L 388.175781 143.328125 Z M 388.175781 137.933594 " clip-rule="nonzero"/></clipPath><clipPath id="ea8cfbbdec"><path d="M 0.175781 0.460938 L 6.585938 0.460938 L 6.585938 26.933594 L 0.175781 26.933594 Z M 0.175781 26.933594 L 20.820312 26.933594 L 20.820312 32.328125 L 0.175781 32.328125 Z M 0.175781 26.933594 " clip-rule="nonzero"/></clipPath><clipPath id="8d7fc8285c"><rect x="0" width="21" y="0" height="33"/></clipPath></defs><g clip-path="url(#19cb7c1a4a)"><path fill="#ffffff" d="M 0 0.253906 L 430.5 0.253906 L 430.5 293.746094 L 0 293.746094 Z M 0 0.253906 " fill-opacity="1" fill-rule="nonzero"/><path fill="#ffffff" d="M 0 0.253906 L 430.5 0.253906 L 430.5 293.746094 L 0 293.746094 Z M 0 0.253906 " fill-opacity="1" fill-rule="nonzero"/></g><g clip-path="url(#e996010564)"><g clip-path="url(#b2992c2422)"><g transform="matrix(1, 0, 0, 1, 21, 107)"><g clip-path="url(#3a2db6cc8f)"><g clip-path="url(#772c298015)"><g clip-path="url(#8ebfc05762)"><rect x="-115.875" width="621" fill="#1b76bc" height="423.359983" y="-171.679997" fill-opacity="1"/></g></g></g></g></g></g><g clip-path="url(#afb412886e)"><g clip-path="url(#b523ba6f51)"><g transform="matrix(1, 0, 0, 1, 67, 107)"><g clip-path="url(#811f7a6daa)"><g clip-path="url(#811b2e48bb)"><g clip-path="url(#376f4c70de)"><rect x="-161.875" width="621" fill="#1b76bc" height="423.359983" y="-171.679997" fill-opacity="1"/></g></g></g></g></g></g><g clip-path="url(#9dde510978)"><g clip-path="url(#b6603eb790)"><g transform="matrix(1, 0, 0, 1, 84, 126)"><g clip-path="url(#52548ba0b1)"><g clip-path="url(#8fbc15d1dd)"><g clip-path="url(#c8e08e9476)"><rect x="-178.875" width="621" fill="#ef4137" height="423.359983" y="-190.679997" fill-opacity="1"/></g></g></g></g></g></g><g clip-path="url(#8550cd9136)"><g clip-path="url(#4bea207597)"><g transform="matrix(1, 0, 0, 1, 24, 126)"><g clip-path="url(#9b94c4cfe4)"><g clip-path="url(#27cc907695)"><g clip-path="url(#db9ff2e443)"><rect x="-118.875" width="621" fill="#ef4137" height="423.359983" y="-190.679997" fill-opacity="1"/></g></g></g></g></g></g><g clip-path="url(#f21ee68059)"><g clip-path="url(#894376d5de)"><g transform="matrix(1, 0, 0, 1, 43, 92)"><g clip-path="url(#a02777f684)"><g clip-path="url(#528a122862)"><g clip-path="url(#3a67e9ae71)"><rect x="-137.875" width="621" fill="#ef4137" height="423.359983" y="-156.679997" fill-opacity="1"/></g></g></g></g></g></g><g clip-path="url(#80690ecde9)"><g clip-path="url(#b4d834a2f1)"><g transform="matrix(1, 0, 0, 1, 40, 118)"><g clip-path="url(#426d3a3366)"><g clip-path="url(#d31d7ab34e)"><g clip-path="url(#2a9307a0cb)"><rect x="-134.875" width="621" fill="#ffffff" height="423.359983" y="-182.679997" fill-opacity="1"/></g></g></g></g></g></g><g clip-path="url(#fe782b0c35)"><g clip-path="url(#b5afa28a66)"><g transform="matrix(1, 0, 0, 1, 146, 158)"><g clip-path="url(#1e55a3b7f2)"><g clip-path="url(#cdc3092281)"><g clip-path="url(#2e1669d1c1)"><rect x="-240.875" width="621" fill="#ef4137" height="423.359983" y="-222.679997" fill-opacity="1"/></g></g></g></g></g></g><g clip-path="url(#bf704b6aa1)"><g clip-path="url(#7bb3eaf441)"><g transform="matrix(1, 0, 0, 1, 169, 152)"><g clip-path="url(#f8ce968f6b)"><g clip-path="url(#e857b130e3)"><g clip-path="url(#29405179b8)"><rect x="-263.875" width="621" fill="#ef4137" height="423.359983" y="-216.679997" fill-opacity="1"/></g></g></g></g></g></g><g clip-path="url(#9db99b42da)"><g clip-path="url(#931e336909)"><g transform="matrix(1, 0, 0, 1, 188, 158)"><g clip-path="url(#c3486487cb)"><g clip-path="url(#c1d272d10d)"><g clip-path="url(#15473133c9)"><rect x="-282.875" width="621" fill="#ef4137" height="423.359983" y="-222.679997" fill-opacity="1"/></g></g></g></g></g></g><g clip-path="url(#c4ea800d64)"><g clip-path="url(#2865c8554b)"><g transform="matrix(1, 0, 0, 1, 212, 158)"><g clip-path="url(#ff118a1835)"><g clip-path="url(#896054c34b)"><g clip-path="url(#690013f12a)"><rect x="-306.875" width="621" fill="#ef4137" height="423.359983" y="-222.679997" fill-opacity="1"/></g></g></g></g></g></g><g clip-path="url(#8cdbbc11e9)"><g clip-path="url(#80b461d66a)"><g transform="matrix(1, 0, 0, 1, 238, 158)"><g clip-path="url(#f07eaf82da)"><g clip-path="url(#5d0d8d0509)"><g clip-path="url(#b047714bf3)"><rect x="-332.875" width="621" fill="#ef4137" height="423.359983" y="-222.679997" fill-opacity="1"/></g></g></g></g></g></g><g clip-path="url(#27b81f62d7)"><g transform="matrix(1, 0, 0, 1, 262, 158)"><g clip-path="url(#f400ffca59)"><g clip-path="url(#f1381bc014)"><rect x="-356.875" width="621" fill="#ef4137" height="423.359983" y="-222.679997" fill-opacity="1"/></g></g></g></g><g clip-path="url(#73e92cf8ae)"><g clip-path="url(#3fe6449719)"><g transform="matrix(1, 0, 0, 1, 147, 111)"><g clip-path="url(#d1a0e9a5bb)"><g clip-path="url(#3c525779ff)"><g clip-path="url(#ef800f9133)"><rect x="-241.875" width="621" fill="#ef4137" height="423.359983" y="-175.679997" fill-opacity="1"/></g></g></g></g></g></g><g clip-path="url(#3959ee6172)"><g transform="matrix(1, 0, 0, 1, 175, 111)"><g clip-path="url(#355c53ff79)"><g clip-path="url(#74f2e56995)"><rect x="-269.875" width="621" fill="#ef4137" height="423.359983" y="-175.679997" fill-opacity="1"/></g></g></g></g><g clip-path="url(#3b73c962ce)"><g clip-path="url(#bc96e03ea6)"><g transform="matrix(1, 0, 0, 1, 202, 111)"><g clip-path="url(#adb8a5d688)"><g clip-path="url(#41c5bdf4b2)"><g clip-path="url(#2a9812cd98)"><rect x="-296.875" width="621" fill="#ef4137" height="423.359983" y="-175.679997" fill-opacity="1"/></g></g></g></g></g></g><g clip-path="url(#b504841fa8)"><g transform="matrix(1, 0, 0, 1, 232, 111)"><g clip-path="url(#9bcf04368f)"><g clip-path="url(#31bb037fcd)"><rect x="-326.875" width="621" fill="#ef4137" height="423.359983" y="-175.679997" fill-opacity="1"/></g></g></g></g><g clip-path="url(#b778968d17)"><g clip-path="url(#11c4aac6cd)"><g transform="matrix(1, 0, 0, 1, 258, 110)"><g clip-path="url(#8243027aa2)"><g clip-path="url(#2d81629b2c)"><g clip-path="url(#a47522d79d)"><rect x="-352.875" width="621" fill="#ef4137" height="423.359983" y="-174.679997" fill-opacity="1"/></g></g></g></g></g></g><g clip-path="url(#689ae6fe84)"><g clip-path="url(#3991bb20bc)"><g transform="matrix(1, 0, 0, 1, 294, 111)"><g clip-path="url(#0c1eec72ed)"><g clip-path="url(#a8dd47e53f)"><g clip-path="url(#4675726905)"><rect x="-388.875" width="621" fill="#ef4137" height="423.359983" y="-175.679997" fill-opacity="1"/></g></g></g></g></g></g><g clip-path="url(#783824f368)"><g clip-path="url(#118b364bf2)"><g transform="matrix(1, 0, 0, 1, 322, 110)"><g clip-path="url(#69a4953913)"><g clip-path="url(#5f6badde0f)"><g clip-path="url(#37c69a1e9a)"><rect x="-416.875" width="621" fill="#ef4137" height="423.359983" y="-174.679997" fill-opacity="1"/></g></g></g></g></g></g><g clip-path="url(#3a39e67b70)"><g clip-path="url(#9efdd877ab)"><g transform="matrix(1, 0, 0, 1, 351, 110)"><g clip-path="url(#fbea2fd43c)"><g clip-path="url(#09a09d920c)"><g clip-path="url(#20874667d3)"><rect x="-445.875" width="621" fill="#ef4137" height="423.359983" y="-174.679997" fill-opacity="1"/></g></g></g></g></g></g><g clip-path="url(#fd67bb26cb)"><g transform="matrix(1, 0, 0, 1, 388, 111)"><g clip-path="url(#8d7fc8285c)"><g clip-path="url(#ea8cfbbdec)"><rect x="-482.875" width="621" fill="#ef4137" height="423.359983" y="-175.679997" fill-opacity="1"/></g></g></g></g></svg>