<svg xmlns="http://www.w3.org/2000/svg" xmlns:xlink="http://www.w3.org/1999/xlink" width="256" zoomAndPan="magnify" viewBox="0 0 192 191.999996" height="256" preserveAspectRatio="xMidYMid meet" version="1.0"><defs><clipPath id="8a160d9ea0"><path d="M 6 31.5 L 108 31.5 L 108 187.5 L 6 187.5 Z M 6 31.5 " clip-rule="nonzero"/></clipPath><clipPath id="a6c7f89ab8"><path d="M 71.761719 109.652344 C 76.34375 101.726562 80.660156 94.425781 84.75 86.996094 C 85.246094 86.097656 84.914062 84.316406 84.34375 83.300781 C 78.375 72.761719 72.332031 62.25 66.121094 51.847656 C 65.410156 50.667969 63.503906 49.574219 62.121094 49.523438 C 54.996094 49.296875 47.875 49.410156 40.738281 49.449219 C 39.722656 49.449219 38.691406 49.636719 37.144531 49.789062 C 48.773438 69.90625 60.0625 89.449219 71.746094 109.652344 M 107.265625 171.136719 C 103.964844 175.632812 99 181.691406 95.925781 187.023438 C 66.058594 135.304688 36.394531 83.949219 6.347656 31.949219 C 9.003906 31.949219 10.832031 31.949219 12.671875 31.949219 C 32.433594 31.9375 52.191406 31.960938 71.9375 31.875 C 74.199219 31.859375 75.53125 32.40625 76.699219 34.476562 C 85.980469 50.742188 95.429688 66.921875 104.675781 83.214844 C 105.347656 84.40625 105.410156 86.617188 104.75 87.785156 C 97.730469 100.320312 90.464844 112.710938 83.367188 125.207031 C 82.796875 126.210938 82.386719 127.964844 82.882812 128.828125 C 88.878906 139.46875 95.035156 150.019531 101.398438 160.980469 Z M 107.265625 171.136719 " clip-rule="nonzero"/></clipPath><clipPath id="138a5f8d42"><path d="M 82.5 31.5 L 186 31.5 L 186 121.5 L 82.5 121.5 Z M 82.5 31.5 " clip-rule="nonzero"/></clipPath><clipPath id="6f1b686346"><path d="M 164.179688 31.9375 C 171.164062 31.925781 178.136719 31.9375 185.652344 31.9375 C 175.964844 48.75 166.515625 65.144531 156.851562 81.894531 C 143.429688 72.191406 130.222656 62.640625 117.019531 53.09375 C 116.800781 53.28125 116.585938 53.460938 116.382812 53.652344 C 124.242188 67.671875 132.089844 81.675781 139.953125 95.695312 C 140.117188 95.441406 140.292969 95.1875 140.460938 94.933594 C 141.410156 95.378906 142.605469 95.59375 143.265625 96.292969 C 145.917969 99.113281 145.78125 101.855469 143.519531 105.183594 C 140.167969 110.121094 137.460938 115.507812 134.148438 121.269531 C 116.902344 91.429688 99.898438 62.007812 82.695312 32.203125 C 83.875 32.089844 84.789062 31.925781 85.691406 31.925781 C 95.949219 31.910156 106.199219 31.824219 116.457031 32 C 118.425781 32.039062 120.675781 32.710938 122.289062 33.828125 C 131.824219 40.445312 141.207031 47.265625 150.972656 54.25 C 154.109375 48.925781 157.121094 43.808594 160.242188 38.503906 Z M 164.179688 31.9375 " clip-rule="nonzero"/></clipPath><clipPath id="f4f1f3a796"><path d="M 111 62.25 L 181 62.25 L 181 174.75 L 111 174.75 Z M 111 62.25 " clip-rule="nonzero"/></clipPath><clipPath id="1acb08eae9"><path d="M 175.496094 62.667969 C 193.398438 107.125 165.386719 164.863281 111.074219 174.3125 C 113.894531 169.410156 116.445312 164.800781 119.214844 160.304688 C 119.722656 159.480469 121.042969 159.085938 122.058594 158.667969 C 154.542969 145.246094 172.269531 114.65625 167.710938 80.0625 C 167.480469 78.351562 167.8125 76.304688 168.585938 74.769531 C 170.65625 70.679688 173.121094 66.78125 175.496094 62.679688 " clip-rule="nonzero"/></clipPath><clipPath id="a116561889"><path d="M 11 62.25 L 81 62.25 L 81 174.75 L 11 174.75 Z M 11 62.25 " clip-rule="nonzero"/></clipPath><clipPath id="a517ae6817"><path d="M 16.417969 62.515625 C 19.0625 67.097656 21.714844 71.46875 24.089844 75.976562 C 24.648438 77.03125 24.519531 78.605469 24.332031 79.886719 C 19.265625 112.6875 37.371094 145.105469 68.066406 157.832031 C 71.238281 159.152344 73.5625 160.878906 75.113281 163.976562 C 76.8125 167.417969 78.871094 170.679688 80.890625 174.210938 C 31.164062 166.300781 -2.160156 112.371094 16.433594 62.515625 " clip-rule="nonzero"/></clipPath><clipPath id="516e194090"><path d="M 42.75 6 L 148.5 6 L 148.5 25.5 L 42.75 25.5 Z M 42.75 6 " clip-rule="nonzero"/></clipPath><clipPath id="e5e23855bf"><path d="M 148.394531 25.257812 C 141.296875 25.257812 134.1875 25.585938 127.125 25.117188 C 123.886719 24.902344 120.765625 23.097656 117.5625 22.070312 C 101.742188 16.953125 86.097656 17.777344 70.476562 23.226562 C 67.148438 24.382812 63.519531 24.964844 59.988281 25.179688 C 54.628906 25.5 49.246094 25.269531 42.757812 25.269531 C 54.589844 15.644531 67.214844 9.957031 81.234375 7.632812 C 106.058594 3.515625 128.546875 9.21875 148.394531 25.246094 " clip-rule="nonzero"/></clipPath><clipPath id="9f4adc0af5"><path d="M 37 49 L 85.5 49 L 85.5 110 L 37 110 Z M 37 49 " clip-rule="nonzero"/></clipPath><clipPath id="04962d52fb"><path d="M 71.761719 109.652344 C 60.078125 89.449219 48.773438 69.90625 37.15625 49.789062 C 38.707031 49.636719 39.722656 49.460938 40.75 49.449219 C 47.875 49.421875 55.011719 49.296875 62.132812 49.523438 C 63.519531 49.574219 65.421875 50.667969 66.132812 51.847656 C 72.355469 62.25 78.386719 72.761719 84.355469 83.300781 C 84.929688 84.316406 85.257812 86.097656 84.761719 86.996094 C 80.675781 94.425781 76.355469 101.714844 71.773438 109.652344 " clip-rule="nonzero"/></clipPath></defs><g clip-path="url(#8a160d9ea0)"><g clip-path="url(#a6c7f89ab8)"><rect x="-19.2" width="230.4" fill="#1b76bc" y="-19.2" height="230.399995" fill-opacity="1"/></g></g><g clip-path="url(#138a5f8d42)"><g clip-path="url(#6f1b686346)"><rect x="-19.2" width="230.4" fill="#1b76bc" y="-19.2" height="230.399995" fill-opacity="1"/></g></g><g clip-path="url(#f4f1f3a796)"><g clip-path="url(#1acb08eae9)"><rect x="-19.2" width="230.4" fill="#ef4137" y="-19.2" height="230.399995" fill-opacity="1"/></g></g><g clip-path="url(#a116561889)"><g clip-path="url(#a517ae6817)"><rect x="-19.2" width="230.4" fill="#ef4137" y="-19.2" height="230.399995" fill-opacity="1"/></g></g><g clip-path="url(#516e194090)"><g clip-path="url(#e5e23855bf)"><rect x="-19.2" width="230.4" fill="#ef4137" y="-19.2" height="230.399995" fill-opacity="1"/></g></g><g clip-path="url(#9f4adc0af5)"><g clip-path="url(#04962d52fb)"><rect x="-19.2" width="230.4" fill="#ffffff" y="-19.2" height="230.399995" fill-opacity="1"/></g></g></svg>