<svg xmlns="http://www.w3.org/2000/svg" xmlns:xlink="http://www.w3.org/1999/xlink" width="575" zoomAndPan="magnify" viewBox="0 0 431.25 293.999989" height="392" preserveAspectRatio="xMidYMid meet" version="1.0"><defs><g/><clipPath id="8feb7c637d"><rect x="0" width="309" y="0" height="96"/></clipPath><clipPath id="d35820188c"><rect x="0" width="67" y="0" height="137"/></clipPath><clipPath id="35df35fa86"><rect x="0" width="70" y="0" height="137"/></clipPath></defs><g transform="matrix(1, 0, 0, 1, 67, 155)"><g clip-path="url(#8feb7c637d)"><g fill="#000000" fill-opacity="1"><g transform="translate(0.473048, 44.426089)"><g><path d="M 26.859375 -16.375 C 28.660156 -15.8125 30.070312 -14.859375 31.09375 -13.515625 C 32.113281 -12.179688 32.625 -10.539062 32.625 -8.59375 C 32.625 -5.832031 31.550781 -3.707031 29.40625 -2.21875 C 27.257812 -0.738281 24.132812 0 20.03125 0 L 3.734375 0 L 3.734375 -31.5 L 19.125 -31.5 C 22.96875 -31.5 25.914062 -30.765625 27.96875 -29.296875 C 30.019531 -27.828125 31.046875 -25.832031 31.046875 -23.3125 C 31.046875 -21.78125 30.675781 -20.414062 29.9375 -19.21875 C 29.207031 -18.019531 28.179688 -17.070312 26.859375 -16.375 Z M 10.984375 -26.015625 L 10.984375 -18.578125 L 18.21875 -18.578125 C 20.019531 -18.578125 21.382812 -18.890625 22.3125 -19.515625 C 23.25 -20.148438 23.71875 -21.082031 23.71875 -22.3125 C 23.71875 -23.550781 23.25 -24.476562 22.3125 -25.09375 C 21.382812 -25.707031 20.019531 -26.015625 18.21875 -26.015625 Z M 19.484375 -5.484375 C 21.398438 -5.484375 22.847656 -5.796875 23.828125 -6.421875 C 24.804688 -7.054688 25.296875 -8.035156 25.296875 -9.359375 C 25.296875 -11.972656 23.359375 -13.28125 19.484375 -13.28125 L 10.984375 -13.28125 L 10.984375 -5.484375 Z M 19.484375 -5.484375 "/></g></g></g><g fill="#000000" fill-opacity="1"><g transform="translate(34.892019, 44.426089)"><g><path d="M 18.984375 0.546875 C 15.710938 0.546875 12.765625 -0.15625 10.140625 -1.5625 C 7.515625 -2.976562 5.457031 -4.921875 3.96875 -7.390625 C 2.488281 -9.867188 1.75 -12.65625 1.75 -15.75 C 1.75 -18.84375 2.488281 -21.625 3.96875 -24.09375 C 5.457031 -26.570312 7.515625 -28.515625 10.140625 -29.921875 C 12.765625 -31.335938 15.710938 -32.046875 18.984375 -32.046875 C 22.253906 -32.046875 25.191406 -31.335938 27.796875 -29.921875 C 30.410156 -28.515625 32.46875 -26.570312 33.96875 -24.09375 C 35.46875 -21.625 36.21875 -18.84375 36.21875 -15.75 C 36.21875 -12.65625 35.46875 -9.867188 33.96875 -7.390625 C 32.46875 -4.921875 30.410156 -2.976562 27.796875 -1.5625 C 25.191406 -0.15625 22.253906 0.546875 18.984375 0.546875 Z M 18.984375 -5.671875 C 20.847656 -5.671875 22.53125 -6.097656 24.03125 -6.953125 C 25.53125 -7.804688 26.707031 -9 27.5625 -10.53125 C 28.414062 -12.0625 28.84375 -13.800781 28.84375 -15.75 C 28.84375 -17.695312 28.414062 -19.4375 27.5625 -20.96875 C 26.707031 -22.5 25.53125 -23.691406 24.03125 -24.546875 C 22.53125 -25.398438 20.847656 -25.828125 18.984375 -25.828125 C 17.128906 -25.828125 15.453125 -25.398438 13.953125 -24.546875 C 12.453125 -23.691406 11.273438 -22.5 10.421875 -20.96875 C 9.566406 -19.4375 9.140625 -17.695312 9.140625 -15.75 C 9.140625 -13.800781 9.566406 -12.0625 10.421875 -10.53125 C 11.273438 -9 12.453125 -7.804688 13.953125 -6.953125 C 15.453125 -6.097656 17.128906 -5.671875 18.984375 -5.671875 Z M 18.984375 -5.671875 "/></g></g></g><g fill="#000000" fill-opacity="1"><g transform="translate(72.865367, 44.426089)"><g><path d="M 18.984375 0.546875 C 15.710938 0.546875 12.765625 -0.15625 10.140625 -1.5625 C 7.515625 -2.976562 5.457031 -4.921875 3.96875 -7.390625 C 2.488281 -9.867188 1.75 -12.65625 1.75 -15.75 C 1.75 -18.84375 2.488281 -21.625 3.96875 -24.09375 C 5.457031 -26.570312 7.515625 -28.515625 10.140625 -29.921875 C 12.765625 -31.335938 15.710938 -32.046875 18.984375 -32.046875 C 22.253906 -32.046875 25.191406 -31.335938 27.796875 -29.921875 C 30.410156 -28.515625 32.46875 -26.570312 33.96875 -24.09375 C 35.46875 -21.625 36.21875 -18.84375 36.21875 -15.75 C 36.21875 -12.65625 35.46875 -9.867188 33.96875 -7.390625 C 32.46875 -4.921875 30.410156 -2.976562 27.796875 -1.5625 C 25.191406 -0.15625 22.253906 0.546875 18.984375 0.546875 Z M 18.984375 -5.671875 C 20.847656 -5.671875 22.53125 -6.097656 24.03125 -6.953125 C 25.53125 -7.804688 26.707031 -9 27.5625 -10.53125 C 28.414062 -12.0625 28.84375 -13.800781 28.84375 -15.75 C 28.84375 -17.695312 28.414062 -19.4375 27.5625 -20.96875 C 26.707031 -22.5 25.53125 -23.691406 24.03125 -24.546875 C 22.53125 -25.398438 20.847656 -25.828125 18.984375 -25.828125 C 17.128906 -25.828125 15.453125 -25.398438 13.953125 -24.546875 C 12.453125 -23.691406 11.273438 -22.5 10.421875 -20.96875 C 9.566406 -19.4375 9.140625 -17.695312 9.140625 -15.75 C 9.140625 -13.800781 9.566406 -12.0625 10.421875 -10.53125 C 11.273438 -9 12.453125 -7.804688 13.953125 -6.953125 C 15.453125 -6.097656 17.128906 -5.671875 18.984375 -5.671875 Z M 18.984375 -5.671875 "/></g></g></g><g fill="#000000" fill-opacity="1"><g transform="translate(110.838716, 44.426089)"><g><path d="M 10.265625 -25.5625 L 0.1875 -25.5625 L 0.1875 -31.5 L 27.625 -31.5 L 27.625 -25.5625 L 17.546875 -25.5625 L 17.546875 0 L 10.265625 0 Z M 10.265625 -25.5625 "/></g></g></g><g fill="#000000" fill-opacity="1"><g transform="translate(138.643848, 44.426089)"><g><path d="M 14.078125 0.546875 C 11.585938 0.546875 9.179688 0.207031 6.859375 -0.46875 C 4.535156 -1.144531 2.671875 -2.023438 1.265625 -3.109375 L 3.734375 -8.59375 C 5.085938 -7.601562 6.691406 -6.804688 8.546875 -6.203125 C 10.410156 -5.609375 12.269531 -5.3125 14.125 -5.3125 C 16.195312 -5.3125 17.726562 -5.617188 18.71875 -6.234375 C 19.707031 -6.847656 20.203125 -7.664062 20.203125 -8.6875 C 20.203125 -9.4375 19.910156 -10.054688 19.328125 -10.546875 C 18.742188 -11.046875 17.992188 -11.441406 17.078125 -11.734375 C 16.160156 -12.035156 14.921875 -12.367188 13.359375 -12.734375 C 10.960938 -13.304688 9 -13.875 7.46875 -14.4375 C 5.9375 -15.007812 4.625 -15.925781 3.53125 -17.1875 C 2.4375 -18.445312 1.890625 -20.128906 1.890625 -22.234375 C 1.890625 -24.054688 2.382812 -25.710938 3.375 -27.203125 C 4.363281 -28.691406 5.851562 -29.867188 7.84375 -30.734375 C 9.84375 -31.609375 12.285156 -32.046875 15.171875 -32.046875 C 17.179688 -32.046875 19.144531 -31.800781 21.0625 -31.3125 C 22.976562 -30.832031 24.65625 -30.144531 26.09375 -29.25 L 23.84375 -23.71875 C 20.9375 -25.363281 18.03125 -26.1875 15.125 -26.1875 C 13.082031 -26.1875 11.570312 -25.851562 10.59375 -25.1875 C 9.625 -24.53125 9.140625 -23.664062 9.140625 -22.59375 C 9.140625 -21.507812 9.703125 -20.703125 10.828125 -20.171875 C 11.953125 -19.648438 13.664062 -19.132812 15.96875 -18.625 C 18.375 -18.0625 20.34375 -17.492188 21.875 -16.921875 C 23.40625 -16.347656 24.71875 -15.445312 25.8125 -14.21875 C 26.90625 -12.988281 27.453125 -11.320312 27.453125 -9.21875 C 27.453125 -7.425781 26.945312 -5.785156 25.9375 -4.296875 C 24.9375 -2.804688 23.429688 -1.625 21.421875 -0.75 C 19.410156 0.113281 16.960938 0.546875 14.078125 0.546875 Z M 14.078125 0.546875 "/></g></g></g><g fill="#000000" fill-opacity="1"><g transform="translate(167.348815, 44.426089)"><g><path d="M 10.265625 -25.5625 L 0.1875 -25.5625 L 0.1875 -31.5 L 27.625 -31.5 L 27.625 -25.5625 L 17.546875 -25.5625 L 17.546875 0 L 10.265625 0 Z M 10.265625 -25.5625 "/></g></g></g><g fill="#000000" fill-opacity="1"><g transform="translate(195.153947, 44.426089)"><g><path d="M 23.8125 0 L 17.734375 -8.78125 L 11.03125 -8.78125 L 11.03125 0 L 3.734375 0 L 3.734375 -31.5 L 17.375 -31.5 C 20.164062 -31.5 22.585938 -31.03125 24.640625 -30.09375 C 26.691406 -29.164062 28.269531 -27.847656 29.375 -26.140625 C 30.488281 -24.429688 31.046875 -22.40625 31.046875 -20.0625 C 31.046875 -17.726562 30.484375 -15.710938 29.359375 -14.015625 C 28.234375 -12.316406 26.632812 -11.019531 24.5625 -10.125 L 31.640625 0 Z M 23.671875 -20.0625 C 23.671875 -21.832031 23.097656 -23.191406 21.953125 -24.140625 C 20.816406 -25.085938 19.15625 -25.5625 16.96875 -25.5625 L 11.03125 -25.5625 L 11.03125 -14.578125 L 16.96875 -14.578125 C 19.15625 -14.578125 20.816406 -15.054688 21.953125 -16.015625 C 23.097656 -16.972656 23.671875 -18.320312 23.671875 -20.0625 Z M 23.671875 -20.0625 "/></g></g></g><g fill="#000000" fill-opacity="1"><g transform="translate(228.223151, 44.426089)"><g><path d="M 24.484375 -6.75 L 9.859375 -6.75 L 7.0625 0 L -0.40625 0 L 13.640625 -31.5 L 20.828125 -31.5 L 34.921875 0 L 27.265625 0 Z M 22.1875 -12.28125 L 17.1875 -24.34375 L 12.1875 -12.28125 Z M 22.1875 -12.28125 "/></g></g></g><g fill="#000000" fill-opacity="1"><g transform="translate(262.687109, 44.426089)"><g><path d="M 17.375 -31.5 C 20.164062 -31.5 22.585938 -31.03125 24.640625 -30.09375 C 26.691406 -29.164062 28.269531 -27.847656 29.375 -26.140625 C 30.488281 -24.429688 31.046875 -22.40625 31.046875 -20.0625 C 31.046875 -17.757812 30.488281 -15.742188 29.375 -14.015625 C 28.269531 -12.296875 26.691406 -10.976562 24.640625 -10.0625 C 22.585938 -9.144531 20.164062 -8.6875 17.375 -8.6875 L 11.03125 -8.6875 L 11.03125 0 L 3.734375 0 L 3.734375 -31.5 Z M 16.96875 -14.625 C 19.15625 -14.625 20.816406 -15.09375 21.953125 -16.03125 C 23.097656 -16.976562 23.671875 -18.320312 23.671875 -20.0625 C 23.671875 -21.832031 23.097656 -23.191406 21.953125 -24.140625 C 20.816406 -25.085938 19.15625 -25.5625 16.96875 -25.5625 L 11.03125 -25.5625 L 11.03125 -14.625 Z M 16.96875 -14.625 "/></g></g></g><g fill="#000000" fill-opacity="1"><g transform="translate(295.623922, 44.426089)"><g/></g></g><g fill="#fd7906" fill-opacity="1"><g transform="translate(0.473048, 84.006783)"><g><path d="M 27.40625 -2.875 L 27.40625 0 L 5.125 0 L 5.125 -31.5 L 26.734375 -31.5 L 26.734375 -28.625 L 8.453125 -28.625 L 8.453125 -17.421875 L 24.75 -17.421875 L 24.75 -14.578125 L 8.453125 -14.578125 L 8.453125 -2.875 Z M 27.40625 -2.875 "/></g></g></g><g fill="#fd7906" fill-opacity="1"><g transform="translate(39.751748, 84.006783)"><g><path d="M 31.453125 -31.5 L 31.453125 0 L 28.703125 0 L 8.453125 -25.5625 L 8.453125 0 L 5.125 0 L 5.125 -31.5 L 7.875 -31.5 L 28.171875 -5.9375 L 28.171875 -31.5 Z M 31.453125 -31.5 "/></g></g></g><g fill="#fd7906" fill-opacity="1"><g transform="translate(85.509315, 84.006783)"><g><path d="M 27.3125 -15.75 L 30.515625 -15.75 L 30.515625 -3.734375 C 29.046875 -2.441406 27.304688 -1.453125 25.296875 -0.765625 C 23.285156 -0.078125 21.164062 0.265625 18.9375 0.265625 C 15.789062 0.265625 12.957031 -0.421875 10.4375 -1.796875 C 7.914062 -3.179688 5.9375 -5.09375 4.5 -7.53125 C 3.0625 -9.976562 2.34375 -12.71875 2.34375 -15.75 C 2.34375 -18.78125 3.0625 -21.515625 4.5 -23.953125 C 5.9375 -26.398438 7.914062 -28.3125 10.4375 -29.6875 C 12.957031 -31.070312 15.804688 -31.765625 18.984375 -31.765625 C 21.390625 -31.765625 23.597656 -31.378906 25.609375 -30.609375 C 27.617188 -29.847656 29.3125 -28.71875 30.6875 -27.21875 L 28.625 -25.109375 C 26.132812 -27.566406 22.96875 -28.796875 19.125 -28.796875 C 16.570312 -28.796875 14.269531 -28.234375 12.21875 -27.109375 C 10.164062 -25.984375 8.550781 -24.421875 7.375 -22.421875 C 6.207031 -20.429688 5.625 -18.207031 5.625 -15.75 C 5.625 -13.289062 6.207031 -11.070312 7.375 -9.09375 C 8.550781 -7.113281 10.15625 -5.550781 12.1875 -4.40625 C 14.226562 -3.269531 16.523438 -2.703125 19.078125 -2.703125 C 22.316406 -2.703125 25.0625 -3.507812 27.3125 -5.125 Z M 27.3125 -15.75 "/></g></g></g><g fill="#fd7906" fill-opacity="1"><g transform="translate(129.467196, 84.006783)"><g><path d="M 5.125 -31.5 L 8.453125 -31.5 L 8.453125 0 L 5.125 0 Z M 5.125 -31.5 "/></g></g></g><g fill="#fd7906" fill-opacity="1"><g transform="translate(152.233783, 84.006783)"><g><path d="M 31.453125 -31.5 L 31.453125 0 L 28.703125 0 L 8.453125 -25.5625 L 8.453125 0 L 5.125 0 L 5.125 -31.5 L 7.875 -31.5 L 28.171875 -5.9375 L 28.171875 -31.5 Z M 31.453125 -31.5 "/></g></g></g><g fill="#fd7906" fill-opacity="1"><g transform="translate(197.991348, 84.006783)"><g><path d="M 27.40625 -2.875 L 27.40625 0 L 5.125 0 L 5.125 -31.5 L 26.734375 -31.5 L 26.734375 -28.625 L 8.453125 -28.625 L 8.453125 -17.421875 L 24.75 -17.421875 L 24.75 -14.578125 L 8.453125 -14.578125 L 8.453125 -2.875 Z M 27.40625 -2.875 "/></g></g></g><g fill="#fd7906" fill-opacity="1"><g transform="translate(237.27005, 84.006783)"><g><path d="M 13.8125 0.265625 C 11.476562 0.265625 9.238281 -0.109375 7.09375 -0.859375 C 4.945312 -1.609375 3.285156 -2.597656 2.109375 -3.828125 L 3.421875 -6.390625 C 4.554688 -5.253906 6.066406 -4.332031 7.953125 -3.625 C 9.847656 -2.914062 11.800781 -2.5625 13.8125 -2.5625 C 16.632812 -2.5625 18.75 -3.078125 20.15625 -4.109375 C 21.570312 -5.148438 22.28125 -6.492188 22.28125 -8.140625 C 22.28125 -9.398438 21.894531 -10.40625 21.125 -11.15625 C 20.363281 -11.90625 19.425781 -12.484375 18.3125 -12.890625 C 17.207031 -13.296875 15.664062 -13.738281 13.6875 -14.21875 C 11.3125 -14.820312 9.414062 -15.398438 8 -15.953125 C 6.59375 -16.503906 5.382812 -17.347656 4.375 -18.484375 C 3.375 -19.628906 2.875 -21.175781 2.875 -23.125 C 2.875 -24.71875 3.296875 -26.164062 4.140625 -27.46875 C 4.984375 -28.78125 6.273438 -29.820312 8.015625 -30.59375 C 9.753906 -31.375 11.910156 -31.765625 14.484375 -31.765625 C 16.285156 -31.765625 18.046875 -31.515625 19.765625 -31.015625 C 21.492188 -30.523438 22.988281 -29.847656 24.25 -28.984375 L 23.125 -26.328125 C 21.8125 -27.191406 20.40625 -27.84375 18.90625 -28.28125 C 17.40625 -28.71875 15.929688 -28.9375 14.484375 -28.9375 C 11.722656 -28.9375 9.644531 -28.398438 8.25 -27.328125 C 6.863281 -26.265625 6.171875 -24.894531 6.171875 -23.21875 C 6.171875 -21.957031 6.550781 -20.941406 7.3125 -20.171875 C 8.070312 -19.410156 9.03125 -18.828125 10.1875 -18.421875 C 11.34375 -18.015625 12.894531 -17.570312 14.84375 -17.09375 C 17.15625 -16.53125 19.023438 -15.96875 20.453125 -15.40625 C 21.878906 -14.851562 23.085938 -14.015625 24.078125 -12.890625 C 25.066406 -11.765625 25.5625 -10.242188 25.5625 -8.328125 C 25.5625 -6.734375 25.132812 -5.285156 24.28125 -3.984375 C 23.425781 -2.679688 22.113281 -1.644531 20.34375 -0.875 C 18.570312 -0.113281 16.394531 0.265625 13.8125 0.265625 Z M 13.8125 0.265625 "/></g></g></g></g></g><g transform="matrix(1, 0, 0, 1, 201, 41)"><g clip-path="url(#d35820188c)"><g fill="#ffffff" fill-opacity="1"><g transform="translate(1.581926, 110.498151)"><g><path d="M 62.808594 -15.488281 C 62.808594 -9.375 63.035156 -4.347656 63.496094 -0.40625 L 63.972656 3.679688 L 59.863281 3.5 C 55.296875 3.296875 47.570312 3.195312 36.683594 3.195312 C 21.90625 3.195312 10.867188 3.296875 3.5625 3.5 L -0.0390625 3.601562 L -0.0390625 -5.335938 L 3.253906 -5.535156 C 5.132812 -5.648438 6.429688 -5.84375 7.140625 -6.121094 L 7.144531 -6.105469 C 7.160156 -6.125 7.183594 -6.179688 7.214844 -6.273438 C 7.472656 -7.078125 7.605469 -8.589844 7.605469 -10.800781 L 7.605469 -61.34375 C 7.605469 -63.554688 7.472656 -65.0625 7.214844 -65.867188 C 7.183594 -65.964844 7.160156 -66.019531 7.144531 -66.035156 L 7.140625 -66.023438 C 6.429688 -66.300781 5.132812 -66.496094 3.253906 -66.609375 L -0.0390625 -66.808594 L -0.0390625 -75.746094 L 3.5625 -75.644531 C 10.867188 -75.441406 21.90625 -75.339844 36.683594 -75.339844 C 46.613281 -75.339844 53.65625 -75.441406 57.808594 -75.640625 L 61.804688 -75.835938 L 61.46875 -71.847656 C 61.003906 -66.308594 60.769531 -61.378906 60.769531 -57.0625 C 60.769531 -54.21875 60.863281 -52.054688 61.046875 -50.566406 L 61.539062 -46.628906 L 52.183594 -46.628906 L 51.757812 -49.648438 C 50.839844 -56.203125 49.296875 -60.675781 47.132812 -63.066406 C 45.175781 -65.21875 42.304688 -66.296875 38.515625 -66.296875 L 34.339844 -66.296875 C 32.636719 -66.296875 31.503906 -66.195312 30.933594 -65.992188 C 31.039062 -66.027344 31.101562 -66.085938 31.128906 -66.160156 C 30.917969 -65.546875 30.8125 -64.347656 30.8125 -62.566406 L 30.8125 -37.292969 L 27.308594 -37.292969 L 27.308594 -40.796875 L 30.570312 -40.796875 C 32.957031 -40.796875 34.738281 -41.628906 35.910156 -43.285156 C 37.496094 -45.535156 38.613281 -48.253906 39.261719 -51.445312 L 39.832031 -54.246094 L 48.800781 -54.246094 L 48.53125 -50.496094 C 48.335938 -47.726562 48.234375 -44.617188 48.234375 -41.167969 L 48.234375 -36.277344 C 48.234375 -32.886719 48.4375 -28.140625 48.839844 -22.035156 L 49.085938 -18.304688 L 40.011719 -18.304688 L 39.542969 -21.253906 C 38.9375 -25.039062 37.84375 -27.792969 36.25 -29.515625 C 34.871094 -31.007812 32.976562 -31.753906 30.570312 -31.753906 L 27.308594 -31.753906 L 27.308594 -35.257812 L 30.8125 -35.257812 L 30.8125 -9.578125 C 30.8125 -7.796875 30.917969 -6.597656 31.128906 -5.980469 C 31.101562 -6.058594 31.039062 -6.113281 30.933594 -6.152344 C 31.503906 -5.949219 32.636719 -5.847656 34.339844 -5.847656 L 39.332031 -5.847656 C 43.113281 -5.847656 46.132812 -7.105469 48.390625 -9.625 C 50.882812 -12.402344 52.6875 -17.390625 53.804688 -24.585938 L 54.265625 -27.550781 L 63.445312 -27.550781 L 63.097656 -23.730469 C 62.902344 -21.59375 62.808594 -18.847656 62.808594 -15.488281 Z M 55.800781 -15.488281 C 55.800781 -19.058594 55.90625 -22.019531 56.121094 -24.363281 L 59.609375 -24.046875 L 59.609375 -20.546875 L 57.265625 -20.546875 L 57.265625 -24.046875 L 60.726562 -23.511719 C 59.398438 -14.945312 57.023438 -8.757812 53.605469 -4.945312 C 49.957031 -0.875 45.199219 1.160156 39.332031 1.160156 L 34.339844 1.160156 C 31.828125 1.160156 29.90625 0.921875 28.574219 0.445312 C 26.566406 -0.269531 25.210938 -1.652344 24.507812 -3.699219 C 24.039062 -5.054688 23.804688 -7.011719 23.804688 -9.578125 L 23.804688 -38.757812 L 30.570312 -38.757812 C 35.019531 -38.757812 38.628906 -37.261719 41.394531 -34.269531 C 43.945312 -31.511719 45.636719 -27.539062 46.460938 -22.355469 L 43 -21.804688 L 43 -25.308594 L 45.34375 -25.308594 L 45.34375 -21.804688 L 41.847656 -21.574219 C 41.4375 -27.835938 41.230469 -32.734375 41.230469 -36.277344 L 41.230469 -41.167969 C 41.230469 -44.78125 41.335938 -48.058594 41.542969 -50.996094 L 45.039062 -50.746094 L 45.039062 -47.242188 L 42.695312 -47.242188 L 42.695312 -50.746094 L 46.128906 -50.046875 C 45.28125 -45.898438 43.785156 -42.300781 41.632812 -39.25 C 39.070312 -35.609375 35.378906 -33.792969 30.570312 -33.792969 L 23.804688 -33.792969 L 23.804688 -62.566406 C 23.804688 -65.128906 24.039062 -67.089844 24.507812 -68.445312 C 25.210938 -70.492188 26.566406 -71.871094 28.574219 -72.589844 C 29.90625 -73.066406 31.828125 -73.300781 34.339844 -73.300781 L 38.515625 -73.300781 C 44.375 -73.300781 48.976562 -71.457031 52.320312 -67.769531 C 55.453125 -64.316406 57.578125 -58.601562 58.695312 -50.621094 L 55.226562 -50.132812 L 55.226562 -53.636719 L 57.570312 -53.636719 L 57.570312 -50.132812 L 54.097656 -49.699219 C 53.875 -51.472656 53.761719 -53.929688 53.761719 -57.0625 C 53.761719 -61.578125 54.003906 -66.703125 54.488281 -72.4375 L 57.980469 -72.144531 L 58.148438 -68.644531 C 53.878906 -68.4375 46.726562 -68.335938 36.683594 -68.335938 C 21.839844 -68.335938 10.734375 -68.4375 3.367188 -68.640625 L 3.464844 -72.144531 L 6.96875 -72.144531 L 6.96875 -70.105469 L 3.464844 -70.105469 L 3.675781 -73.601562 C 6.28125 -73.445312 8.277344 -73.09375 9.671875 -72.558594 C 11.761719 -71.746094 13.164062 -70.238281 13.878906 -68.023438 C 14.367188 -66.519531 14.609375 -64.292969 14.609375 -61.34375 L 14.609375 -10.800781 C 14.609375 -7.851562 14.367188 -5.625 13.878906 -4.117188 C 13.164062 -1.90625 11.761719 -0.394531 9.671875 0.414062 C 8.277344 0.953125 6.28125 1.300781 3.675781 1.457031 L 3.464844 -2.039062 L 6.96875 -2.039062 L 6.96875 0 L 3.464844 0 L 3.367188 -3.5 C 10.734375 -3.707031 21.839844 -3.808594 36.683594 -3.808594 C 47.671875 -3.808594 55.5 -3.707031 60.171875 -3.5 L 60.015625 0 L 56.539062 0.40625 C 56.046875 -3.804688 55.800781 -9.101562 55.800781 -15.488281 Z M 55.800781 -15.488281 "/></g></g></g><g fill="#000000" fill-opacity="1"><g transform="translate(1.581926, 110.498151)"><g><path d="M 59.296875 -15.484375 C 59.296875 -9.234375 59.535156 -4.070312 60.015625 0 C 55.390625 -0.207031 47.613281 -0.3125 36.6875 -0.3125 C 21.875 -0.3125 10.800781 -0.207031 3.46875 0 L 3.46875 -2.03125 C 5.707031 -2.164062 7.351562 -2.4375 8.40625 -2.84375 C 9.457031 -3.257812 10.171875 -4.039062 10.546875 -5.1875 C 10.921875 -6.34375 11.109375 -8.210938 11.109375 -10.796875 L 11.109375 -61.34375 C 11.109375 -63.914062 10.921875 -65.78125 10.546875 -66.9375 C 10.171875 -68.09375 9.457031 -68.875 8.40625 -69.28125 C 7.351562 -69.6875 5.707031 -69.957031 3.46875 -70.09375 L 3.46875 -72.140625 C 10.800781 -71.929688 21.875 -71.828125 36.6875 -71.828125 C 46.664062 -71.828125 53.757812 -71.929688 57.96875 -72.140625 C 57.5 -66.503906 57.265625 -61.476562 57.265625 -57.0625 C 57.265625 -54.070312 57.363281 -51.757812 57.5625 -50.125 L 55.21875 -50.125 C 54.207031 -57.394531 52.375 -62.488281 49.71875 -65.40625 C 47.070312 -68.332031 43.335938 -69.796875 38.515625 -69.796875 L 34.34375 -69.796875 C 32.226562 -69.796875 30.695312 -69.625 29.75 -69.28125 C 28.800781 -68.945312 28.15625 -68.285156 27.8125 -67.296875 C 27.476562 -66.316406 27.3125 -64.738281 27.3125 -62.5625 L 27.3125 -37.296875 L 30.5625 -37.296875 C 34.164062 -37.296875 36.898438 -38.617188 38.765625 -41.265625 C 40.640625 -43.910156 41.945312 -47.066406 42.6875 -50.734375 L 45.03125 -50.734375 C 44.832031 -47.890625 44.734375 -44.695312 44.734375 -41.15625 L 44.734375 -36.265625 C 44.734375 -32.804688 44.9375 -27.984375 45.34375 -21.796875 L 43 -21.796875 C 41.570312 -30.765625 37.425781 -35.25 30.5625 -35.25 L 27.3125 -35.25 L 27.3125 -9.578125 C 27.3125 -7.398438 27.476562 -5.816406 27.8125 -4.828125 C 28.15625 -3.847656 28.800781 -3.1875 29.75 -2.84375 C 30.695312 -2.507812 32.226562 -2.34375 34.34375 -2.34375 L 39.328125 -2.34375 C 44.148438 -2.34375 48.035156 -3.988281 50.984375 -7.28125 C 53.941406 -10.582031 56.035156 -16.171875 57.265625 -24.046875 L 59.609375 -24.046875 C 59.398438 -21.804688 59.296875 -18.953125 59.296875 -15.484375 Z M 59.296875 -15.484375 "/></g></g></g></g></g><g transform="matrix(1, 0, 0, 1, 155, 16)"><g clip-path="url(#35df35fa86)"><g fill="#fd7906" fill-opacity="1"><g transform="translate(0.525242, 110.644799)"><g><path d="M 39.734375 -37.90625 C 48.566406 -37.226562 55.050781 -35.191406 59.1875 -31.796875 C 63.332031 -28.398438 65.40625 -24.390625 65.40625 -19.765625 C 65.40625 -13.453125 62.925781 -8.578125 57.96875 -5.140625 C 53.007812 -1.710938 46.117188 0 37.296875 0 C 35.328125 0 33.660156 -0.0351562 32.296875 -0.109375 C 27.816406 -0.242188 23.4375 -0.3125 19.15625 -0.3125 C 12.15625 -0.3125 6.925781 -0.207031 3.46875 0 L 3.46875 -2.03125 C 5.707031 -2.164062 7.351562 -2.4375 8.40625 -2.84375 C 9.457031 -3.257812 10.171875 -4.039062 10.546875 -5.1875 C 10.921875 -6.34375 11.109375 -8.210938 11.109375 -10.796875 L 11.109375 -61.34375 C 11.109375 -63.914062 10.921875 -65.78125 10.546875 -66.9375 C 10.171875 -68.09375 9.457031 -68.875 8.40625 -69.28125 C 7.351562 -69.6875 5.707031 -69.957031 3.46875 -70.09375 L 3.46875 -72.140625 C 6.925781 -71.929688 12.085938 -71.828125 18.953125 -71.828125 L 30.265625 -71.9375 C 31.617188 -72 33.179688 -72.03125 34.953125 -72.03125 C 43.097656 -72.03125 49.328125 -70.570312 53.640625 -67.65625 C 57.953125 -64.738281 60.109375 -60.867188 60.109375 -56.046875 C 60.109375 -52.097656 58.394531 -48.425781 54.96875 -45.03125 C 51.539062 -41.632812 46.460938 -39.328125 39.734375 -38.109375 Z M 33.625 -70.09375 C 31.789062 -70.09375 30.445312 -69.851562 29.59375 -69.375 C 28.75 -68.90625 28.15625 -68.054688 27.8125 -66.828125 C 27.476562 -65.609375 27.3125 -63.78125 27.3125 -61.34375 L 27.3125 -38.3125 L 31.6875 -38.3125 C 36.101562 -38.3125 39.191406 -39.820312 40.953125 -42.84375 C 42.722656 -45.863281 43.609375 -49.890625 43.609375 -54.921875 C 43.609375 -60.015625 42.804688 -63.816406 41.203125 -66.328125 C 39.609375 -68.835938 37.082031 -70.09375 33.625 -70.09375 Z M 34.34375 -2.34375 C 43.78125 -2.34375 48.5 -8.285156 48.5 -20.171875 C 48.5 -25.535156 47.140625 -29.609375 44.421875 -32.390625 C 41.703125 -35.179688 37.425781 -36.578125 31.59375 -36.578125 L 27.3125 -36.578125 L 27.3125 -10.796875 C 27.3125 -8.347656 27.476562 -6.546875 27.8125 -5.390625 C 28.15625 -4.242188 28.816406 -3.445312 29.796875 -3 C 30.785156 -2.5625 32.300781 -2.34375 34.34375 -2.34375 Z M 34.34375 -2.34375 "/></g></g></g></g></g><path stroke-linecap="butt" transform="matrix(0.748698, 0.000000000000001324, -0.000000000000001324, 0.748698, 335.215118, 229.107112)" fill="none" stroke-linejoin="miter" d="M -0.000365762 2.502153 L 32.149201 2.502153 " stroke="#fd7906" stroke-width="5" stroke-opacity="1" stroke-miterlimit="4"/></svg>